<svg xmlns="http://www.w3.org/2000/svg" width="278" height="85" fill="none"><path d="M262.307 85c-7.189 0-13.151-3.074-16.307-9.309l4.471-2.459c2.543 4.918 6.488 6.675 11.661 6.675 5.698 0 10.432-2.459 10.432-7.377 0-10.714-25.249-3.249-25.249-19.409 0-7.114 6.488-12.12 14.641-12.12 6.926 0 12.186 2.986 14.992 8.08l-4.471 2.547c-2.28-4.303-5.962-5.533-10.433-5.533-4.734 0-9.293 2.547-9.293 6.938 0 10.363 25.249 3.249 25.249 19.409C278 80.17 270.723 85 262.307 85zm-43.264 0C206.682 85 197 75.274 197 62.832V22h5.36v27.688c3.544-5.433 9.768-9.113 16.856-9.113 12.448 0 21.784 9.726 21.784 22.256C241 75.011 231.578 85 219.043 85zm0-5.17c9.25 0 16.597-7.711 16.597-16.999s-7.347-17.086-16.597-17.086c-9.336 0-16.683 7.798-16.683 17.086s7.347 16.999 16.683 16.999zM165.265 85C153.163 85 144 75.087 144 62.913c0-12 9.422-21.913 21.957-21.913C178.318 41 188 50.565 188 62.913V84.13h-5.1v-9.826C179.701 80.652 173.218 85 165.265 85zm.692-5.13c9.336 0 16.683-7.652 16.683-16.87s-7.347-16.87-16.683-16.87c-9.25 0-16.597 7.652-16.597 16.87s7.347 16.87 16.597 16.87zM131 22h5v62h-5V22z" fill="#fff"/><g fill="#0194ff"><path fill-rule="evenodd" d="M93.221 6c-5.359 0-9.84 1.859-13.611 5.64s-5.625 8.273-5.625 13.646V35h47.023c1.652 0 2.992 1.343 2.992 3v16c0 1.657-1.34 3-2.992 3H73.985v21h10.687V61h5.985v20c0 .796-.315 1.559-.876 2.121a2.99 2.99 0 0 1-2.116.879H70.992C69.34 84 68 82.657 68 81V54c0-.796.315-1.559.876-2.121A2.99 2.99 0 0 1 70.992 51h47.023V41H70.992a2.99 2.99 0 0 1-2.116-.879C68.315 39.559 68 38.796 68 38V25.286c0-6.958 2.481-12.978 7.379-17.888S86.281 0 93.221 0h27.787C122.66 0 124 1.343 124 3v16.714c0 1.657-1.34 3-2.992 3H93.221c-.695 0-1.258.219-1.83.793-.513.515-.735 1.052-.735 1.779V31h-5.985v-5.714a8.32 8.32 0 0 1 2.488-6.021c1.651-1.655 3.719-2.55 6.062-2.55h24.794V6H93.221z"/><path d="M13.102 13.311C17.946 8.411 23.691 6 30.5 6s12.532 2.411 17.336 7.304l.014.014c4.837 4.86 7.22 10.65 7.22 17.539V78h-10.59V54c0-1.657-1.328-3-2.965-3H2.965C1.328 51 0 52.343 0 54v27c0 1.657 1.328 3 2.965 3h16.521c1.638 0 2.965-1.343 2.965-3V61h-5.931v17H5.931V57h32.618v24c0 1.657 1.328 3 2.965 3h16.521C59.672 84 61 82.657 61 81V30.857c0-8.485-3.012-15.804-8.964-21.788C46.122 3.047 38.887 0 30.5 0S14.859 3.049 8.909 9.069C2.991 15.056 0 22.375 0 30.857V38c0 1.657 1.328 3 2.965 3h38.549c1.638 0 2.965-1.343 2.965-3v-7.143c0-3.876-1.394-7.26-4.118-9.977-2.686-2.755-6.031-4.166-9.862-4.166-3.868 0-7.116 1.437-9.814 4.166-.94.951-4.166 4.284-4.166 8.977V31h5.931v-1.143c0-2.021 1.499-3.794 2.429-4.734 1.635-1.654 3.394-2.408 5.62-2.408 2.255 0 4.08.775 5.65 2.39l.016.016.02.02c1.597 1.588 2.363 3.435 2.363 5.716V35H5.931v-4.143c0-6.895 2.369-12.687 7.172-17.546z"/></g></svg>
