<svg xmlns="http://www.w3.org/2000/svg" width="163" height="33" fill="#fff"><path d="M88.604 15.257c1.417 0 1.621-.883 1.612-2.343-.009-2.072-.988-2.915-3.927-2.915-3.61 0-4.469 1.068-4.664 4.77-.031.324.133.488.457.488h6.523zm-2.205 10.095c-6.06 0-8.391-2.465-8.391-9.164 0-6.859 2.45-9.084 8.121-9.084 5.346 0 7.539 2.004 7.548 5.832.009 3.118-1.091 4.963-3.525 4.963h-7.979c-.323 0-.487.195-.457.492.43 3.321 1.937 4.066 5.129 4.066 1.454 0 3.261-.121 4.892-.303.771-.067 1.224.257 1.352 1.055.13.741-.16 1.261-.869 1.454-1.715.507-4.145.689-5.823.689h0zm11.37-4.675V1.236c0-.807.421-1.224 1.224-1.224h1.01c.807 0 1.223.417 1.223 1.224l-.031 18.662c0 1.479.784 2.228 2.258 2.228h.483c.736 0 1.25.381 1.312 1.117l.031.416c.062.731-.164 1.272-.905 1.4-.786.138-1.671.204-2.236.204-2.667 0-4.369-1.622-4.369-4.586m10.535 3.025V8.786c0-.807.421-1.224 1.223-1.224h.979c.807 0 1.223.417 1.223 1.224v14.915c0 .807-.417 1.224-1.223 1.224h-.979c-.802 0-1.223-.421-1.223-1.224m-.433-21.567c0-1.167.963-2.135 2.161-2.135a2.15 2.15 0 0 1 2.135 2.135c0 1.198-.968 2.161-2.135 2.161-1.198 0-2.161-.963-2.161-2.161m9.068 18.463V8.786c0-.807.421-1.223 1.223-1.223h1.01c.802 0 1.224.416 1.224 1.223v10.805c0 2.209.568 2.866 2.21 2.866 1.77 0 3.369-.371 5.748-1.533a.46.46 0 0 0 .297-.461V8.786c0-.807.417-1.223 1.224-1.223h1.01c.802 0 1.223.416 1.223 1.223v14.911c0 .802-.417 1.228-1.219 1.228h-.562c-.767 0-1.155-.293-1.25-.852l-.04-.364c-.031-.293-.257-.364-.586-.169-2.276 1.348-4.524 1.842-6.798 1.842-3.056 0-4.715-1.663-4.715-4.786m21.316 4.329c-.802 0-1.224-.417-1.224-1.224V8.786c0-.802.412-1.223 1.214-1.223h.443c.771 0 1.183.045 1.343.821l.04.302c.062.355.288.488.616.262 2.133-1.441 4.956-1.843 6.318-1.843 1.908 0 3.225.304 4.247 1.834.19.293.39.323.745.071a10.71 10.71 0 0 1 6.281-1.905c3.073 0 4.723 1.664 4.723 4.786v11.811c0 .807-.421 1.224-1.224 1.224h-1.01c-.807 0-1.224-.417-1.224-1.224V12.897c-.031-2.023-.662-2.866-2.498-2.866-1.327 0-2.687.18-5.017 1.55-.231.159-.328.323-.323.616l-.008 1.306v10.199c-.031.807-.452 1.224-1.255 1.224h-.886c-.807 0-1.224-.417-1.224-1.224V12.897c.031-2.147-.785-2.866-2.498-2.866-.95 0-2.628.092-4.989 1.471-.231.128-.328.323-.359.616v11.584c-.031.807-.448 1.224-1.254 1.224h-.979.001zm-71.338-2.467v-.001c-1.311.031-3.122-.152-3.988-.389-.386-.098-.612-.319-.612-.736l-.031-9.86c0-.448.098-.731.39-.798 1.692-.425 3.149-.582 4.364-.582 2.878 0 4.032.963 4.032 6.168 0 4.709-1.182 6.136-4.156 6.198m.527-15.353c-.883 0-2.842.095-4.674.799-.452.164-.683.217-.616-.298.138-1.023.164-1.625.164-2.875V1.235c0-.807-.421-1.224-1.224-1.224h-1.01c-.802 0-1.224.421-1.224 1.224v23.101l.028.3c.18.874.644.924 1.512.924h.499c.603 0 1.009-.213 1.213-.623 1.509.247 3.28.414 4.587.414h.001c6.191 0 7.927-3.235 7.927-8.969 0-7.996-2.948-9.279-7.184-9.279m-15.68 14.229c0 .417-.226.638-.612.736-.866.238-2.677.42-3.988.389v.001c-2.974-.062-4.156-1.489-4.156-6.198 0-5.205 1.154-6.168 4.032-6.168 1.215 0 2.672.157 4.364.582.293.067.39.35.39.798l-.031 9.86zm3.41-13.529c-.18-.874-.644-.924-1.512-.924h-.499c-.817 0-1.273.389-1.354 1.131-.006 0-.272-.024-.498-.106-1.831-.704-3.79-.799-4.674-.799-4.236 0-7.184 1.283-7.184 9.279 0 5.734 1.736 8.969 7.927 8.969h.001c1.299 0 3.056-.165 4.559-.409.223.579.672.618 1.425.618h.499c.8 0 1.254-.374 1.347-1.087h.006v-1.147a2 2 0 0 0 .003-.111V8.238l-.046-.435zM21.695 21.918c-3.614.004-5.286-2.99-6.781-5.069-1.543-2.148-2.769-2.735-4.27-2.743-1.157-.006-3.043.628-3.039 2.74S9.644 19.6 10.652 19.6c1.462-.002 2.169-.685 2.472-.954a.42.42 0 0 1 .282-.108h1.101c.35 0 .634.284.634.634v2.111a.63.63 0 0 1-.189.451c-.115.115-.274.187-.449.187h-.847c-.336 0-.604-.26-.626-.59l-.005-.002c-.669.298-1.079.587-2.335.589-3.434.004-5.508-2.66-5.51-5.071-.003-2.535 2.185-5.068 5.51-5.071 3.677-.004 5.345 3.263 6.766 5.07 1.483 1.887 2.407 2.734 4.236 2.741 1.929.008 3.067-1.353 3.066-2.741-.002-1.617-1.428-2.753-3.072-2.752-1.341.001-2.12.707-2.435.968a.41.41 0 0 1-.266.095h-1.112c-.35 0-.635-.284-.635-.635V9.876c0-.35.284-.635.635-.635h.847a.63.63 0 0 1 .634.632v2.474c.724-.294 1.075-.57 2.342-.571 2.418-.003 5.457 1.766 5.461 5.071.001 2.184-1.791 5.067-5.461 5.071M16.167.169A16.17 16.17 0 0 0 0 16.336c0 8.929 6.678 16.167 16.167 16.167a16.17 16.17 0 0 0 16.167-16.167A16.17 16.17 0 0 0 16.167.169"/></svg>
