<svg xmlns="http://www.w3.org/2000/svg" width="1769.667" height="359.657"><defs><clipPath id="A"><path d="M0 269.743h1327.247V0H0z" transform="translate(-596.894 -94.67)"/></clipPath><clipPath id="B"><path d="M0 269.743h1327.247V0H0z" transform="translate(-620.971 -100.428)"/></clipPath><clipPath id="C"><path d="M0 269.743h1327.247V0H0z" transform="translate(-641.548 -91.502)"/></clipPath><clipPath id="D"><path d="M0 269.743h1327.247V0H0z"/></clipPath><clipPath id="E"><path d="M0 269.743h1327.247V0H0z" transform="translate(-678.25 -97.062)"/></clipPath><clipPath id="F"><path d="M0 269.743h1327.247V0H0z" transform="translate(-708.286 -103.574)"/></clipPath><clipPath id="G"><path d="M0 269.743h1327.247V0H0z" transform="translate(-719.98 -97.062)"/></clipPath><clipPath id="H"><path d="M0 269.743h1327.247V0H0z" transform="translate(-742.374 -94.67)"/></clipPath><clipPath id="I"><path d="M0 269.743h1327.247V0H0z" transform="translate(-767.736 -93.075)"/></clipPath><clipPath id="J"><path d="M0 269.743h1327.247V0H0z" transform="translate(-795.666 -94.67)"/></clipPath><clipPath id="K"><path d="M0 269.743h1327.247V0H0z" transform="translate(-822.578 -112.168)"/></clipPath><clipPath id="L"><path d="M0 269.743h1327.247V0H0z" transform="translate(-868.185 -94.67)"/></clipPath><clipPath id="M"><path d="M0 269.743h1327.247V0H0z" transform="translate(-886.325 -97.062)"/></clipPath><clipPath id="N"><path d="M0 269.743h1327.247V0H0z" transform="translate(-916.362 -103.574)"/></clipPath><clipPath id="O"><path d="M0 269.743h1327.247V0H0z" transform="translate(-927.481 -112.168)"/></clipPath><clipPath id="P"><path d="M0 269.743h1327.247V0H0z" transform="translate(-973.087 -94.67)"/></clipPath><clipPath id="Q"><path d="M0 269.743h1327.247V0H0z" transform="translate(-991.228 -97.062)"/></clipPath><clipPath id="R"><path d="M0 269.743h1327.247V0H0z"/></clipPath><clipPath id="S"><path d="M0 269.743h1327.247V0H0z" transform="translate(-1026.535 -100.428)"/></clipPath><clipPath id="T"><path d="M0 269.743h1327.247V0H0z" transform="translate(-1051.808 -96.264)"/></clipPath><clipPath id="U"><path d="M0 269.743h1327.247V0H0z"/></clipPath><clipPath id="V"><path d="M0 269.743h1327.247V0H0z" transform="translate(-1093.959 -112.168)"/></clipPath><clipPath id="W"><path d="M0 269.743h1327.247V0H0z" transform="translate(-1132.766 -120.031)"/></clipPath><clipPath id="X"><path d="M0 269.743h1327.247V0H0z"/></clipPath><clipPath id="Y"><path d="M0 269.743h1327.247V0H0z" transform="translate(-1156.421 -93.075)"/></clipPath><clipPath id="Z"><path d="M0 269.743h1327.247V0H0z"/></clipPath><clipPath id="a"><path d="M0 269.743h1327.247V0H0z" transform="translate(-1197.265 -100.428)"/></clipPath><clipPath id="b"><path d="M0 269.743h1327.247V0H0z" transform="translate(-1222.538 -96.264)"/></clipPath><clipPath id="c"><path d="M0 269.743h1327.247V0H0z" transform="translate(-265.595 -179.687)"/></clipPath><clipPath id="d"><path d="M0 269.743h1327.247V0H0z" transform="translate(-409.7 -179.687)"/></clipPath><clipPath id="e"><path d="M0 269.743h1327.247V0H0z" transform="translate(-509.834 -162.224)"/></clipPath><clipPath id="f"><path d="M0 269.743h1327.247V0H0z"/></clipPath><clipPath id="g"><path d="M0 269.743h1327.247V0H0z"/></clipPath><clipPath id="h"><path d="M0 269.743h1327.247V0H0z"/></clipPath><clipPath id="i"><path d="M0 269.743h1327.247V0H0z"/></clipPath><clipPath id="j"><path d="M0 269.743h1327.247V0H0z"/></clipPath><clipPath id="k"><path d="M0 269.743h1327.247V0H0z"/></clipPath><clipPath id="l"><path d="M0 269.743h1327.247V0H0z"/></clipPath><clipPath id="m"><path d="M0 269.743h1327.247V0H0z"/></clipPath><clipPath id="n"><path d="M0 269.743h1327.247V0H0z" transform="translate(-186.409 -126.371)"/></clipPath><clipPath id="o"><path d="M0 269.743h1327.247V0H0z"/></clipPath><clipPath id="p"><path d="M0 269.743h1327.247V0H0z" transform="translate(-198.42 -134.907)"/></clipPath><clipPath id="q"><path d="M0 269.743h1327.247V0H0z"/></clipPath><clipPath id="r"><path d="M0 269.743h1327.247V0H0z" transform="translate(-106.722 -126.371)"/></clipPath><clipPath id="s"><path d="M0 269.743h1327.247V0H0z"/></clipPath><clipPath id="t"><path d="M0 269.743h1327.247V0H0z" transform="translate(-160.639 -193.559)"/></clipPath><clipPath id="u"><path d="M0 269.743h1327.247V0H0z"/></clipPath><clipPath id="v"><path d="M0 269.743h1327.247V0H0z" transform="translate(-96.758 -126.371)"/></clipPath><clipPath id="w"><path d="M0 269.743h1327.247V0H0z"/></clipPath><clipPath id="x"><path d="M0 269.743h1327.247V0H0z" transform="translate(-128.698 -134.907)"/></clipPath><clipPath id="y"><path d="M0 269.743h1327.247V0H0z"/></clipPath><clipPath id="z"><path d="M0 269.743h1327.247V0H0z"/></clipPath><clipPath id="AA"><path d="M0 269.743h1327.247V0H0z" transform="translate(-116.687 -126.371)"/></clipPath><clipPath id="AB"><path d="M0 269.743h1327.247V0H0z" transform="translate(-92.634 -147.548)"/></clipPath><clipPath id="AC"><path d="M0 269.743h1327.247V0H0z"/></clipPath><clipPath id="AD"><path d="M0 269.743h1327.247V0H0z" transform="translate(-148.076 -185.168)"/></clipPath><clipPath id="AE"><path d="M0 269.743h1327.247V0H0z"/></clipPath><clipPath id="AF"><path d="M0 269.743h1327.247V0H0z" transform="translate(-145.303 -109.293)"/></clipPath><clipPath id="AG"><path d="M0 269.743h1327.247V0H0z"/></clipPath><clipPath id="AH"><path d="M0 269.743h1327.247V0H0z"/></clipPath><clipPath id="AI"><path d="M0 269.743h1327.247V0H0z"/></clipPath><clipPath id="AJ"><path d="M0 269.743h1327.247V0H0z"/></clipPath><clipPath id="AK"><path d="M0 269.743h1327.247V0H0z"/></clipPath><clipPath id="AL"><path d="M0 269.743h1327.247V0H0z" transform="translate(-168.888 -126.371)"/></clipPath><clipPath id="AM"><path d="M0 269.743h1327.247V0H0z" transform="translate(-99.605 -176.961)"/></clipPath><clipPath id="AN"><path d="M0 269.743h1327.247V0H0z" transform="translate(-179.515 -88.27)"/></clipPath><clipPath id="AO"><path d="M0 269.743h1327.247V0H0z" transform="translate(-169.113 -109.293)"/></clipPath><clipPath id="AP"><path d="M0 269.743h1327.247V0H0z" transform="translate(-160.639 -122.267)"/></clipPath><clipPath id="AQ"><path d="M0 269.743h1327.247V0H0z" transform="translate(-168.196 -167.289)"/></clipPath><clipPath id="AR"><path d="M0 269.743h1327.247V0H0z" transform="translate(-144.142 -126.371)"/></clipPath><clipPath id="AS"><path d="M0 269.743h1327.247V0H0z" transform="translate(-164.764 -87.261)"/></clipPath><clipPath id="AT"><path d="M0 269.743h1327.247V0H0z" transform="translate(-134.871 -89.798)"/></clipPath><clipPath id="AU"><path d="M0 269.743h1327.247V0H0z" transform="translate(-161.331 -162.222)"/></clipPath><clipPath id="AV"><path d="M0 269.743h1327.247V0H0z"/></clipPath><clipPath id="AW"><path d="M0 269.743h1327.247V0H0z" transform="translate(-158.653 -157.133)"/></clipPath><clipPath id="AX"><path d="M0 269.743h1327.247V0H0z" transform="translate(-163.378 -139.011)"/></clipPath><clipPath id="AY"><path d="M0 269.743h1327.247V0H0z"/></clipPath><clipPath id="AZ"><path d="M0 269.743h1327.247V0H0z" transform="translate(-145.347 -83.172)"/></clipPath><clipPath id="Aa"><path d="M0 269.743h1327.247V0H0z"/></clipPath><clipPath id="Ab"><path d="M0 269.743h1327.247V0H0z" transform="translate(-780.361 -154.574)"/></clipPath><clipPath id="Ac"><path d="M0 269.743h1327.247V0H0z" transform="translate(-594.651 -161.704)"/></clipPath><clipPath id="Ad"><path d="M0 269.743h1327.247V0H0z" transform="translate(-715.564 -154.574)"/></clipPath><clipPath id="Ae"><path d="M0 269.743h1327.247V0H0z" transform="translate(-632.01 -148.683)"/></clipPath><clipPath id="Af"><path d="M0 269.743h1327.247V0H0z" transform="translate(-731.53 -173.796)"/></clipPath><clipPath id="Ag"><path d="M0 269.743h1327.247V0H0z"/></clipPath><clipPath id="Ah"><path d="M0 269.743h1327.247V0H0z" transform="translate(-671.694 -159.379)"/></clipPath><clipPath id="Ai"><path d="M0 269.743h1327.247V0H0z" transform="translate(-805.141 -159.711)"/></clipPath><clipPath id="Aj"><path d="M0 269.743h1327.247V0H0z" transform="translate(-895.189 -173.796)"/></clipPath><clipPath id="Ak"><path d="M0 269.743h1327.247V0H0z" transform="translate(-882.168 -179.686)"/></clipPath><clipPath id="Al"><path d="M0 269.743h1327.247V0H0z" transform="translate(-843.104 -159.379)"/></clipPath><clipPath id="Am"><path d="M0 269.743h1327.247V0H0z" transform="translate(-995.95 -179.686)"/></clipPath><clipPath id="An"><path d="M0 269.743h1327.247V0H0z" transform="translate(-1090.665 -161.704)"/></clipPath><clipPath id="Ao"><path d="M0 269.743h1327.247V0H0z"/></clipPath><clipPath id="Ap"><path d="M0 269.743h1327.247V0H0z" transform="translate(-940.454 -161.859)"/></clipPath><clipPath id="Aq"><path d="M0 269.743h1327.247V0H0z" transform="translate(-1008.971 -173.796)"/></clipPath><clipPath id="Ar"><path d="M0 269.743h1327.247V0H0z" transform="translate(-968.357 -154.419)"/></clipPath><clipPath id="As"><path d="M0 269.743h1327.247V0H0z" transform="translate(-1051.102 -159.711)"/></clipPath><path id="At" d="M0 0c.517-.503 1.203-.753 2.061-.753 1.21 0 2.221.421 3.034 1.263s1.217 2.178 1.217 4.009v1.018c-.796-.442-1.963-.738-3.499-.886C.421 4.444-.775 3.515-.775 1.86-.775 1.122-.517.502 0 0m-4.695-3.633C-6.069-2.363-6.756-.68-6.756 1.418c0 4.046 2.747 6.394 8.24 7.043 1.329.147 2.333.303 3.013.466s1.144.346 1.396.553.376.502.376.886c0 .709-.363 1.292-1.085 1.75s-1.795.687-3.212.687c-2.452 0-4.948-.871-7.488-2.615v5.539c1.093.709 2.341 1.292 3.745 1.75s2.916.686 4.54.686c3.249 0 5.685-.812 7.309-2.436s2.437-3.899 2.437-6.823V-4.873H7.199l-.178 2.835C6.372-3.16 5.508-4.024 4.431-4.63S2.089-5.537.643-5.537c-2.186 0-3.965.635-5.338 1.904"/><path id="Au" d="M0 0h6.069v-3.189c.679 1.24 1.573 2.193 2.68 2.857s2.34.997 3.699.997c3.81 0 6.305-1.506 7.487-4.519.679 1.417 1.601 2.526 2.768 3.323S25.191.665 26.668.665c2.747 0 4.813-.791 6.202-2.37s2.082-3.906 2.082-6.978v-13.688H28.44v12.847c0 3.042-1.27 4.563-3.809 4.563-1.123 0-2.054-.406-2.791-1.219s-1.108-1.897-1.108-3.256v-12.935H14.22v12.847c0 3.042-1.27 4.563-3.81 4.563-1.123 0-2.053-.406-2.791-1.219S6.512-8.077 6.512-9.436v-12.935H0z"/><path id="Av" d="M0 0v-10.632h-6.512v31.897H0V3.677l7.486 8.062h8.241L6.512 1.86l9.48-12.492H7.974z"/><path id="Aw" d="M0 0c.989-1.123 2.354-1.684 4.098-1.684 1.713 0 3.056.561 4.031 1.684s1.462 2.643 1.462 4.562c0 2.039-.495 3.64-1.484 4.807s-2.356 1.75-4.098 1.75c-1.713 0-3.057-.576-4.031-1.727s-1.462-2.733-1.462-4.741C-1.484 2.673-.99 1.122 0 0m-2.525-5.648c-1.846.989-3.256 2.377-4.231 4.164s-1.462 3.832-1.462 6.135c0 2.333.488 4.401 1.462 6.203s2.377 3.204 4.209 4.209 4.016 1.505 6.556 1.505c2.569 0 4.777-.509 6.623-1.528s3.256-2.43 4.23-4.23 1.462-3.884 1.462-6.248c0-2.302-.487-4.333-1.462-6.09s-2.377-3.131-4.208-4.12-4.016-1.484-6.556-1.484c-2.57 0-4.778.494-6.623 1.484"/><path id="Ax" d="M0 0h4.125v6.5c0 1.138-.934 2.037-2.077 2.037S0 7.638 0 6.5z"/><path id="Ay" d="M0 0h4.124v6.5c0 1.138-.933 2.037-2.077 2.037S0 7.638 0 6.5z"/><path id="Az" d="M0 0l-4.03 10.675L-8.105 0zm-6.643 19.975h5.27l13.509-31.003H4.164L2.126-5.669h-12.401l-2.037-5.359h-7.973z"/><path id="BA" d="M0 0h-6.976v-31.003h19.997v5.89H0z"/></defs><g fill="#fff"><path d="M719.277 293.097h-3.693V66.576h3.693zm37.214-94.515h26.167v8.032h-16.893v9.984h16.361v7.795h-16.361v15.536h-9.273z"/><path d="M0 0c.516-.503 1.203-.753 2.06-.753 1.211 0 2.222.421 3.034 1.263s1.218 2.178 1.218 4.009v1.018c-.797-.442-1.964-.738-3.499-.886C.421 4.444-.775 3.515-.775 1.86-.775 1.122-.517.502 0 0m-4.696-3.633c-1.373 1.27-2.06 2.953-2.06 5.051 0 4.046 2.747 6.394 8.24 7.043 1.329.147 2.333.303 3.013.466s1.144.346 1.395.553.377.502.377.886c0 .709-.363 1.292-1.086 1.75s-1.794.687-3.212.687c-2.451 0-4.947-.871-7.487-2.615v5.539c1.093.709 2.341 1.292 3.744 1.75s2.916.686 4.541.686c3.248 0 5.685-.812 7.309-2.436s2.437-3.899 2.437-6.823V-4.873H7.199l-.178 2.835C6.372-3.16 5.508-4.024 4.43-4.63S2.089-5.537.642-5.537c-2.185 0-3.965.635-5.338 1.904" transform="matrix(1.333333 0 0 -1.333333 795.85853 233.43107)" clip-path="url(#A)"/><path d="M0 0v-10.632h-6.512v31.897H0V3.677l7.487 8.062h8.24L6.512 1.86l9.48-12.492H7.974z" transform="matrix(1.333333 0 0 -1.333333 827.96133 225.75267)" clip-path="url(#B)"/><path d="M0 0c-1.374 1.58-2.06 3.906-2.06 6.978v13.688h6.512V7.819c0-3.042 1.196-4.562 3.588-4.562 1.299 0 2.304.398 3.013 1.195s1.063 1.891 1.063 3.278v12.936h6.512V-1.705h-6.069v3.057C11.85.17 10.942-.746 9.834-1.395s-2.385-.974-3.832-.974C3.374-2.369 1.373-1.58 0 0" transform="matrix(1.333333 0 0 -1.333333 855.3976 237.65493)" clip-path="url(#C)"/><path d="M665.669 121.693h6.512V89.797h-6.512z" transform="matrix(1.333333 0 0 -1.333333 0 359.65733)" clip-path="url(#D)"/><path d="M0 0v10.056h-2.702v5.049H0v4.741l6.512 1.507v-6.248h5.803v-5.049H6.512V.93c0-2.215.886-3.323 2.658-3.323a7.08 7.08 0 0 1 1.573.156c.458.102.982.272 1.572.508v-5.537l-2.281-.509c-.664-.103-1.41-.155-2.237-.155C2.599-7.93 0-5.287 0 0" transform="matrix(1.333333 0 0 -1.333333 904.33307 230.24093)" clip-path="url(#E)"/><path d="M0 0c-.207 1.358-.62 2.37-1.241 3.034s-1.55.997-2.79.997c-2.275 0-3.693-1.343-4.253-4.031zm-11.917-11.252c-2.156 2.126-3.234 4.99-3.234 8.594 0 2.333.465 4.4 1.396 6.202s2.237 3.204 3.92 4.209 3.618 1.506 5.804 1.506c3.573 0 6.216-1.049 7.929-3.146s2.57-4.962 2.57-8.593v-1.95H-8.417c.236-1.594.849-2.755 1.838-3.477s2.414-1.086 4.275-1.086c2.717 0 5.213.458 7.487 1.373v-5.537c-1.241-.444-2.444-.768-3.61-.975s-2.533-.309-4.098-.309c-4.105 0-7.236 1.062-9.392 3.189" transform="matrix(1.333333 0 0 -1.333333 944.3812 221.55867)" clip-path="url(#F)"/><path d="M0 0v10.056h-2.702v5.049H0v4.741l6.512 1.507v-6.248h5.803v-5.049H6.512V.93c0-2.215.886-3.323 2.658-3.323.59 0 1.115.051 1.573.156s.981.272 1.572.508v-5.537l-2.281-.509c-.664-.103-1.41-.155-2.238-.155C2.598-7.93 0-5.287 0 0" transform="matrix(1.333333 0 0 -1.333333 959.97373 230.24093)" clip-path="url(#G)"/><path d="M0 0c.516-.503 1.203-.753 2.06-.753 1.211 0 2.221.421 3.034 1.263s1.218 2.178 1.218 4.009v1.018c-.797-.442-1.964-.738-3.499-.886C.421 4.444-.775 3.515-.775 1.86-.775 1.122-.518.502 0 0m-4.696-3.633c-1.373 1.27-2.06 2.953-2.06 5.051 0 4.046 2.746 6.394 8.239 7.043 1.33.147 2.333.303 3.013.466s1.145.346 1.396.553.377.502.377.886c0 .709-.363 1.292-1.086 1.75s-1.794.687-3.212.687c-2.451 0-4.947-.871-7.487-2.615v5.539c1.092.709 2.34 1.292 3.744 1.75s2.916.686 4.541.686c3.248 0 5.684-.812 7.309-2.436s2.437-3.899 2.437-6.823V-4.873H7.198l-.177 2.835C6.371-3.16 5.508-4.024 4.43-4.63S2.089-5.537.642-5.537c-2.186 0-3.965.635-5.338 1.904" transform="matrix(1.333333 0 0 -1.333333 989.8324 233.43107)" clip-path="url(#H)"/><path d="M0 0l9.392 13.866H.311v5.227h17.498v-3.278L8.461 1.949h9.924v-5.227H0z" transform="matrix(1.333333 0 0 -1.333333 1023.6476 235.55733)" clip-path="url(#I)"/><use href="#At" transform="matrix(1.333333 0 0 -1.333333 1060.8884 233.43107)" clip-path="url(#J)"/><use href="#Au" transform="matrix(1.333333 0 0 -1.333333 1096.7712 210.10027)" clip-path="url(#K)"/><use href="#At" transform="matrix(1.333333 0 0 -1.333333 1157.5799 233.43107)" clip-path="url(#L)"/><path d="M0 0v10.056h-2.702v5.049H0v4.741l6.513 1.507v-6.248h5.802v-5.049H6.513V.93c0-2.215.885-3.323 2.658-3.323.59 0 1.114.051 1.572.156s.982.272 1.572.508v-5.537l-2.281-.509c-.664-.103-1.41-.155-2.237-.155C2.599-7.93 0-5.287 0 0" transform="matrix(1.333333 0 0 -1.333333 1181.7673 230.24093)" clip-path="url(#M)"/><path d="M0 0c-.207 1.358-.62 2.37-1.24 3.034s-1.551.997-2.791.997c-2.275 0-3.693-1.343-4.253-4.031zm-11.917-11.252c-2.155 2.126-3.233 4.99-3.233 8.594 0 2.333.464 4.4 1.395 6.202s2.237 3.204 3.92 4.209 3.618 1.506 5.804 1.506c3.573 0 6.217-1.049 7.929-3.146s2.57-4.962 2.57-8.593v-1.95H-8.417c.236-1.594.849-2.755 1.839-3.477s2.414-1.086 4.274-1.086c2.717 0 5.213.458 7.488 1.373v-5.537c-1.242-.444-2.445-.768-3.611-.975s-2.533-.309-4.098-.309c-4.105 0-7.236 1.062-9.392 3.189" transform="matrix(1.333333 0 0 -1.333333 1221.8155 221.55867)" clip-path="url(#N)"/><use href="#Au" transform="matrix(1.333333 0 0 -1.333333 1236.6411 210.10027)" clip-path="url(#O)"/><use href="#At" transform="matrix(1.333333 0 0 -1.333333 1297.4496 233.43107)" clip-path="url(#P)"/><path d="M0 0v10.056h-2.702v5.049H0v4.741l6.512 1.507v-6.248h5.803v-5.049H6.512V.93c0-2.215.886-3.323 2.658-3.323.591 0 1.114.051 1.573.156s.982.272 1.572.508v-5.537l-2.281-.509a14.7 14.7 0 0 0-2.237-.155C2.599-7.93 0-5.287 0 0" transform="matrix(1.333333 0 0 -1.333333 1321.6371 230.24093)" clip-path="url(#Q)"/><path d="M1008.018 112.168h6.512V89.797h-6.512zm.531 9.702c.768.767 1.684 1.151 2.747 1.151 1.033 0 1.927-.384 2.68-1.151s1.13-1.669 1.13-2.702-.385-1.935-1.153-2.702-1.654-1.153-2.657-1.153c-1.063 0-1.979.384-2.747 1.153s-1.151 1.668-1.151 2.702.383 1.933 1.151 2.702" transform="matrix(1.333333 0 0 -1.333333 0 359.65733)" clip-path="url(#R)"/><use href="#Av" transform="matrix(1.333333 0 0 -1.333333 1368.7127 225.75267)" clip-path="url(#S)"/><use href="#Aw" transform="matrix(1.333333 0 0 -1.333333 1402.4107 231.30467)" clip-path="url(#T)"/><path d="M1081.954 112.168h6.512V89.797h-6.512zm.532 9.702c.767.767 1.683 1.151 2.746 1.151 1.034 0 1.928-.384 2.68-1.151s1.13-1.669 1.13-2.702-.384-1.935-1.152-2.702-1.654-1.153-2.658-1.153c-1.063 0-1.979.384-2.746 1.153s-1.153 1.668-1.153 2.702.384 1.933 1.153 2.702" transform="matrix(1.333333 0 0 -1.333333 0 359.65733)" clip-path="url(#U)"/><path d="M0 0h6.068v-3.189c.709 1.24 1.64 2.193 2.791 2.857s2.466.997 3.943.997c2.747 0 4.813-.791 6.202-2.37s2.082-3.906 2.082-6.978v-13.688h-6.512v12.847c0 3.042-1.27 4.563-3.809 4.563-1.3 0-2.334-.406-3.102-1.219S6.512-8.077 6.512-9.436v-12.935H0z" transform="matrix(1.333333 0 0 -1.333333 1458.6125 210.10027)" clip-path="url(#V)"/><path d="M0 0c1.506 1.491 3.677 2.237 6.512 2.237 1.565 0 2.775-.192 3.633-.575v-5.449c-.916.354-1.788.531-2.614.531-1.034 0-1.839-.273-2.415-.819s-.863-1.322-.863-2.326v-1.462h5.759v-5.05H4.253v-17.321H-2.26v17.321h-3.145v5.05h3.145v1.374C-2.26-3.654-1.507-1.491 0 0" transform="matrix(1.333333 0 0 -1.333333 1510.3547 199.61587)" clip-path="url(#W)"/><path d="M1145.966 112.168h6.512V89.797h-6.512zm.531 9.702c.768.767 1.684 1.151 2.747 1.151 1.034 0 1.927-.384 2.68-1.151s1.13-1.669 1.13-2.702-.385-1.935-1.152-2.702-1.655-1.153-2.658-1.153c-1.063 0-1.979.384-2.747 1.153s-1.152 1.668-1.152 2.702.384 1.933 1.152 2.702" transform="matrix(1.333333 0 0 -1.333333 0 359.65733)" clip-path="url(#X)"/><path d="M0 0l9.392 13.866H.31v5.227h17.499v-3.278L8.461 1.949h9.924v-5.227H0z" transform="matrix(1.333333 0 0 -1.333333 1541.8951 235.55733)" clip-path="url(#Y)"/><path d="M1178.748 112.168h6.512V89.797h-6.512zm.532 9.702c.767.767 1.683 1.151 2.746 1.151 1.034 0 1.927-.384 2.68-1.151s1.13-1.669 1.13-2.702-.384-1.935-1.152-2.702-1.654-1.153-2.658-1.153c-1.063 0-1.979.384-2.746 1.153s-1.153 1.668-1.153 2.702.384 1.933 1.153 2.702" transform="matrix(1.333333 0 0 -1.333333 0 359.65733)" clip-path="url(#Z)"/><use href="#Av" transform="matrix(1.333333 0 0 -1.333333 1596.3533 225.75267)" clip-path="url(#a)"/><use href="#Aw" transform="matrix(1.333333 0 0 -1.333333 1630.0513 231.30467)" clip-path="url(#b)"/><path d="M0 0h-7.705v-89.889h20.161v33.773h35.57v16.95h-35.57v21.702h36.726V0H12.456z" transform="matrix(1.333333 0 0 -1.333333 354.1264 120.0744)" clip-path="url(#c)"/><path d="M0 0l-30.315-51.753L-60.739 0h-12.585l-13.483-89.889h19.904l7.602 52.612 22.704-37.331h.513 11.686.385l22.599 37.16 7.578-52.441h19.904L12.585 0z" transform="matrix(1.333333 0 0 -1.333333 546.26667 120.0744)" clip-path="url(#d)"/><path d="M0 0v17.464h-36.726-12.456-7.705v-89.889h20.161v33.773h35.57v16.95h-35.57V0z" transform="matrix(1.333333 0 0 -1.333333 679.77867 143.3592)" clip-path="url(#e)"/><g transform="matrix(1.333333 0 0 -1.333333 0 359.65733)"><path d="M196.373 96.627h4.094v6.17h-4.094z" clip-path="url(#f)"/><path d="M190.533 115.438h-4.125v-8.537h4.125z" clip-path="url(#g)"/><path d="M196.373 106.901h4.094v8.537h-4.094z" clip-path="url(#h)"/><path d="M186.409 119.541h14.058v2.726h-14.058z" clip-path="url(#i)"/><path d="M186.409 89.798h14.058v2.756h-14.058z" clip-path="url(#j)"/><path d="M186.409 96.627h4.125v6.17h-4.125z" clip-path="url(#k)"/><path d="M196.373 139.011h4.094v8.537h-4.094z" clip-path="url(#l)"/><path d="M186.409 151.651h14.058v2.755h-14.058z" clip-path="url(#m)"/></g><use href="#Ax" transform="matrix(1.333333 0 0 -1.333333 248.54493 191.16307)" clip-path="url(#n)"/><path d="M179.515 176.961h20.952v2.726h-20.952z" transform="matrix(1.333333 0 0 -1.333333 0 359.65733)" clip-path="url(#o)"/><path d="M0 0c-1.144 0-2.047-.899-2.047-2.037v-6.5h4.094v6.5C2.047-.899 1.144 0 0 0" transform="matrix(1.333333 0 0 -1.333333 264.55987 179.7808)" clip-path="url(#p)"/><path d="M190.533 147.548h-4.125v-8.537h4.125z" transform="matrix(1.333333 0 0 -1.333333 0 359.65733)" clip-path="url(#q)"/><use href="#Ax" transform="matrix(1.333333 0 0 -1.333333 142.29613 191.16307)" clip-path="url(#r)"/><path d="M100.882 147.548h-4.124v-8.537h4.124z" transform="matrix(1.333333 0 0 -1.333333 0 359.65733)" clip-path="url(#s)"/><path d="M0 0v-1.378h-.004v-.499h2.743V0c0 2.157-1.444 3.985-3.432 4.584v21.667h-2.74V2.037h1.356C-.934 2.037 0 1.108 0 0" transform="matrix(1.333333 0 0 -1.333333 214.18587 101.57853)" clip-path="url(#t)"/><path d="M126.622 139.011h4.124v8.537h-4.124z" transform="matrix(1.333333 0 0 -1.333333 0 359.65733)" clip-path="url(#u)"/><use href="#Ay" transform="matrix(1.333333 0 0 -1.333333 129.01027 191.16307)" clip-path="url(#v)"/><path d="M96.758 96.627h4.124v6.17h-4.124z" transform="matrix(1.333333 0 0 -1.333333 0 359.65733)" clip-path="url(#w)"/><path d="M0 0c-1.144 0-2.076-.899-2.076-2.037v-6.5h4.124v6.5C2.048-.899 1.144 0 0 0" transform="matrix(1.333333 0 0 -1.333333 171.598 179.7808)" clip-path="url(#x)"/><g transform="matrix(1.333333 0 0 -1.333333 0 359.65733)"><path d="M120.782 147.548h-4.094v-8.537h4.094z" clip-path="url(#y)"/><path d="M110.847 147.548h-4.125v-8.537h4.125z" clip-path="url(#z)"/></g><path d="M0 0h4.094v6.5c0 1.138-.904 2.037-2.047 2.037S0 7.638 0 6.5z" transform="matrix(1.333333 0 0 -1.333333 155.5832 191.16307)" clip-path="url(#AA)"/><path d="M0 0h-2.739v-57.75h40.851v2.756H0v26.988h38.112v2.726H0z" transform="matrix(1.333333 0 0 -1.333333 123.512 162.9272)" clip-path="url(#AB)"/><path d="M100.882 115.438h-4.124v-8.537h4.124z" transform="matrix(1.333333 0 0 -1.333333 0 359.65733)" clip-path="url(#AC)"/><path d="M0 0h20.992l3.312-12.37h2.86l-4.05 15.096H-2.122l-4.05-15.096h2.86z" transform="matrix(1.333333 0 0 -1.333333 197.43493 112.766)" clip-path="url(#AD)"/><path d="M126.622 106.901h4.124v8.537h-4.124z" transform="matrix(1.333333 0 0 -1.333333 0 359.65733)" clip-path="url(#AE)"/><path d="M0 0v-22.032h2.739V0c0 3.385-2.77 6.14-6.172 6.14h-.136V3.407c.12 0 .016.008.136.008C-1.536 3.415 0 1.887 0 0" transform="matrix(1.333333 0 0 -1.333333 193.7368 213.9336)" clip-path="url(#AF)"/><g transform="matrix(1.333333 0 0 -1.333333 0 359.65733)"><path d="M126.622 96.627h4.124v6.17h-4.124z" clip-path="url(#AG)"/><path d="M106.722 96.627h4.125v6.17h-4.125z" clip-path="url(#AH)"/><path d="M110.847 115.438h-4.125v-8.537h4.125z" clip-path="url(#AI)"/><path d="M116.687 96.627h4.094v6.17h-4.094z" clip-path="url(#AJ)"/><path d="M120.782 115.438h-4.094v-8.537h4.094z" clip-path="url(#AK)"/></g><use href="#Ay" transform="matrix(1.333333 0 0 -1.333333 225.18387 191.16307)" clip-path="url(#AL)"/><path d="M0 0h38.035v2.726l-40.142.001-7.574-28.037h40.822v2.755H-6.081z" transform="matrix(1.333333 0 0 -1.333333 132.80707 123.7088)" clip-path="url(#AM)"/><path d="M0 0l2.77 1.528v77.579H0z" transform="matrix(1.333333 0 0 -1.333333 239.35347 241.96427)" clip-path="url(#AN)"/><path d="M0 0v-22.032h2.739V0c0 1.887 1.536 3.415 3.432 3.415.121 0 .017-.008.137-.008V6.14h-.137C2.77 6.14 0 3.385 0 0" transform="matrix(1.333333 0 0 -1.333333 225.4836 213.9336)" clip-path="url(#AO)"/><path d="M0 0h-4.124v7.878c0 1.108.933 2.036 2.047 2.036C-.934 9.914 0 8.986 0 7.878zm2.739 7.878c0 2.635-2.137 4.762-4.816 4.762-2.65 0-4.786-2.127-4.786-4.762V0h-12.043v-2.726h33.687V0H2.739z" transform="matrix(1.333333 0 0 -1.333333 214.18573 196.6344)" clip-path="url(#AP)"/><path d="M0 0l-9.633 5.539-.053.034L-19.238.03v-4.705h-7.224v-2.756h9.964v5.901l6.835 3.924 6.922-3.953v-5.872h9.966v2.756H0z" transform="matrix(1.333333 0 0 -1.333333 224.26107 136.6056)" clip-path="url(#AQ)"/><path d="M0 0h4.125v6.5c0 1.138-.905 2.037-2.049 2.037S0 7.638 0 6.5z" transform="matrix(1.333333 0 0 -1.333333 192.18973 191.16307)" clip-path="url(#AR)"/><path d="M0 0v22.032c0 3.385-2.769 6.141-6.202 6.141-3.401 0-6.171-2.756-6.171-6.141V0h2.739v22.032c0 1.888 1.536 3.415 3.432 3.415s3.462-1.527 3.462-3.415V0z" transform="matrix(1.333333 0 0 -1.333333 219.68533 243.31)" clip-path="url(#AS)"/><path d="M0 0l2.77-1.528v79.107H0z" transform="matrix(1.333333 0 0 -1.333333 179.8276 239.92667)" clip-path="url(#AT)"/><path d="M0 0c0 1.54-1.234 2.787-2.769 2.787-1.506 0-2.74-1.247-2.74-2.787s1.234-2.787 2.74-2.787C-1.234-2.787 0-1.54 0 0" transform="matrix(1.333333 0 0 -1.333333 215.10853 143.36133)" clip-path="url(#AU)"/><path d="M148.267 147.548h-4.125v-8.537h4.125z" transform="matrix(1.333333 0 0 -1.333333 0 359.65733)" clip-path="url(#AV)"/><path d="M0 0c-2.98 0-5.69-1.018-7.827-2.726h-9.093v-2.755h10.115A9.71 9.71 0 0 0 0-2.726c2.648 0 5.026-1.048 6.802-2.755h9.965v2.755h-8.94A12.53 12.53 0 0 1 0 0" transform="matrix(1.333333 0 0 -1.333333 211.5376 150.14733)" clip-path="url(#AW)"/><path d="M0 0v6.5a4.8 4.8 0 0 1-4.816 4.792c-2.649 0-4.786-2.156-4.786-4.792V0h2.739v6.5c0 1.138.933 2.037 2.047 2.037 1.143 0 2.077-.899 2.077-2.037V0z" transform="matrix(1.333333 0 0 -1.333333 217.83747 174.30933)" clip-path="url(#AX)"/><path d="M173.012 147.548h-4.124v-8.537h4.124z" transform="matrix(1.333333 0 0 -1.333333 0 359.65733)" clip-path="url(#AY)"/><path d="M0 0l-3.614 2.054v-3.163l2.878-1.617h27.932l2.877 1.617v3.163L26.46 0z" transform="matrix(1.333333 0 0 -1.333333 193.79627 248.7616)" clip-path="url(#AZ)"/><path d="M230.005 49.916h-2.77V219.81h2.77z" transform="matrix(1.333333 0 0 -1.333333 0 359.65733)" clip-path="url(#Aa)"/><path d="M0 0h-15.192L-.465 21.237v3.876h-23.408v-5.891h14.262L-24.338-2.015v-3.876H0z" transform="matrix(1.333333 0 0 -1.333333 1040.4808 153.55907)" clip-path="url(#Ab)"/><path d="M0 0v17.982h-6.976V.155c0-4.185-1.86-7.441-6.665-7.441-4.186 0-6.666 2.171-6.666 7.441v17.827h-6.976V0c0-8.371 4.341-13.641 13.642-13.641C-5.271-13.641 0-9.456 0 0" transform="matrix(1.333333 0 0 -1.333333 792.86773 144.0516)" clip-path="url(#Ac)"/><path d="M0 0h-14.261v7.286H-1.55v5.89h-12.711v6.046H-.155v5.891h-21.082V-5.891H0z" transform="matrix(1.333333 0 0 -1.333333 954.08493 153.55907)" clip-path="url(#Ad)"/><path d="M0 0v31.003h-6.821V13.021l-17.052 17.982h-3.875V0h6.821v18.292L-3.875 0z" transform="matrix(1.333333 0 0 -1.333333 842.67987 161.41333)" clip-path="url(#Ae)"/><path d="M0 0h3.72c3.876 0 5.736-1.55 5.736-4.341 0-2.945-1.86-4.495-5.736-4.495H0zm0-14.417h2.48l4.496-5.89c3.1-4.186 5.425-5.581 9.921-5.426v6.201c-1.86 0-3.256 1.395-5.426 4.34l-1.24 1.706c3.566 1.55 6.511 4.65 6.511 9.3 0 6.201-4.961 10.077-12.867 10.077H-6.821v-31.004H0z" transform="matrix(1.333333 0 0 -1.333333 975.37373 127.92973)" clip-path="url(#Af)"/><path d="M641.931 148.683h6.976v31.003h-6.976z" transform="matrix(1.333333 0 0 -1.333333 0 359.65733)" clip-path="url(#Ag)"/><path d="M0 0l-8.216 20.307h-8.061L-2.48-10.696h4.805l13.797 31.003H8.216z" transform="matrix(1.333333 0 0 -1.333333 895.592 147.15187)" clip-path="url(#Ah)"/><use href="#Az" transform="matrix(1.333333 0 0 -1.333333 1073.5209 146.70933)" clip-path="url(#Ai)"/><path d="M0 0h8.371v-22.632c0-3.566-.31-8.526-2.325-11.782h7.285c1.706 3.411 2.016 7.441 2.016 12.247V5.891H0z" transform="matrix(1.333333 0 0 -1.333333 1193.5857 127.92973)" clip-path="url(#Aj)"/><use href="#BA" transform="matrix(1.333333 0 0 -1.333333 1176.224 120.0756)" clip-path="url(#Ak)"/><path d="M0 0l-8.061 20.307h-8.061L-2.48-10.696h4.805l13.642 31.003H8.061z" transform="matrix(1.333333 0 0 -1.333333 1124.1384 147.15173)" clip-path="url(#Al)"/><use href="#BA" transform="matrix(1.333333 0 0 -1.333333 1327.9333 120.0756)" clip-path="url(#Am)"/><path d="M0 0l-17.052 17.982h-3.875v-31.003h6.821V5.271L2.945-13.021h3.876v31.003H0z" transform="matrix(1.333333 0 0 -1.333333 1454.22 144.05147)" clip-path="url(#An)"/><path d="M1107.407 148.683h6.976v31.003h-6.976z" transform="matrix(1.333333 0 0 -1.333333 0 359.65733)" clip-path="url(#Ao)"/><path d="M0 0c0-4.186-1.86-7.441-6.666-7.441-4.185 0-6.665 2.17-6.665 7.441v17.827h-6.976V-.155c0-8.371 4.34-13.641 13.641-13.641 8.371 0 13.642 4.185 13.642 13.641v17.982H0z" transform="matrix(1.333333 0 0 -1.333333 1253.9389 143.84467)" clip-path="url(#Ap)"/><path d="M0 0h8.371v-22.632c0-3.566-.31-8.526-2.325-11.782h7.285c1.705 3.411 2.016 7.441 2.016 12.247V5.891H0z" transform="matrix(1.333333 0 0 -1.333333 1345.2952 127.92973)" clip-path="url(#Aq)"/><path d="M0 0h-4.185v7.286H0c3.41 0 4.961-1.24 4.961-3.721C4.961 1.24 3.41 0 0 0m-4.185 19.687h2.79c3.1 0 4.65-1.085 4.65-3.41 0-2.481-1.55-3.566-4.65-3.566h-2.79zm10.854-8.752c2.18 1.087 3.717 3.111 3.717 6.427 0 5.27-3.875 7.906-10.696 7.906h-11.006V-5.736H.93c6.976 0 11.316 2.326 11.316 8.681 0 3.937-1.826 6.85-5.577 7.99" transform="matrix(1.333333 0 0 -1.333333 1291.1428 153.76587)" clip-path="url(#Ar)"/><use href="#Az" transform="matrix(1.333333 0 0 -1.333333 1401.4697 146.70933)" clip-path="url(#As)"/></g></svg>
