<svg id="Layer_1" data-name="Layer 1" xmlns="http://www.w3.org/2000/svg" viewBox="0 0 330 218"><defs><style>.cls-1{fill:#231f20;}.cls-1,.cls-2{fill-rule:evenodd;}.cls-2,.cls-3{fill:#b4162c;}</style></defs><path class="cls-1" d="M3,36.71c0,1.43.12,1.88-1.47,1.88-.2,0-.56,0-.56.28s.18.29.38.29c.86,0,1.72-.09,2.58-.09s1.68.09,2.54.09c.2,0,.38,0,.38-.29s-.38-.28-.58-.28c-1.57,0-1.48-.43-1.48-1.88V32.5c0-.77.23-.77,1.14-.77a13,13,0,0,1,2.74.21c.5.11.68.79.79,1.44,0,.14.09.39.29.39s.25-.05.25-.41c0-.72-.06-1.4-.11-2.13s.09-1.31.11-1.95c0-.18-.13-.22-.25-.22s-.27.25-.29.38c-.11.66-.23,1.5-.79,1.57A24.25,24.25,0,0,1,6,31.1c-.93,0-1.14,0-1.14-1.07V26.81c0-.29,0-.92.3-1.08A7.71,7.71,0,0,1,7,25.57c2,0,3.38,0,4,2.18,0,.15.14.47.36.47s.23-.7.23-.88V25.75c0-.34.09-.79-.36-.79-2.61,0-5.19.09-7.77.09-.73,0-1.41-.09-2.13-.09C1.15,25,1,25,1,25.25s.37.32.59.32C3.12,25.57,3,26,3,27.38Z"/><path class="cls-1" d="M18.52,33.79a1.25,1.25,0,0,1,.25-.09c.23,0,.16.55.16.64v1.35a2,2,0,0,1-.57,1.7,3,3,0,0,1-2.1.91A1.39,1.39,0,0,1,14.69,37c0-1.08.89-1.67,1.77-2.13Zm-2.17.59C15.08,35,13,35.94,13,37.55a2,2,0,0,0,2.13,1.79c2,0,3.45-1.72,3.65-1.72s.43,1.58,1.54,1.58a2.94,2.94,0,0,0,1.61-.65c.16-.14.54-.45.54-.7a.18.18,0,0,0-.16-.18c-.2,0-.45.56-1,.56-.81,0-.79-1.31-.79-1.81V31.07c0-.61.09-1.17-.45-1.65A3.26,3.26,0,0,0,18,28.83a6.36,6.36,0,0,0-4.06,1.56A2.51,2.51,0,0,0,13,32c0,.23.12.28.3.28a3,3,0,0,0,1-.3,1.34,1.34,0,0,0,.63-.82,2.7,2.7,0,0,1,2.61-1.9c1.4,0,1.45.93,1.45,2v1c0,.86,0,.88-.84,1.27Z"/><path class="cls-1" d="M26.74,35.47c0-.86,0-.8.71-1.32.11-.09.34-.31.52-.31s.54.47.65.63l2.11,2.76c.16.21.54.68.54,1,0,.47-.54.43-.88.43A.37.37,0,0,0,30,39c0,.2.2.18.36.18.7,0,1.43-.09,2.1-.09s1.5.09,2.22.09c.16,0,.37,0,.37-.2s-.27-.34-.48-.34c-.84,0-1.15-.55-1.65-1.16l-3.42-4.35a.39.39,0,0,1-.16-.29c0-.21.43-.5.57-.61l1.72-1.36a4.15,4.15,0,0,1,2.6-1.27c.21,0,.45,0,.45-.27s-.2-.18-.38-.18h-4c-.18,0-.5-.05-.5.2s.62.29.87.32.72,0,.72.36-.68.86-.93,1.06l-3.35,2.65c-.05.05-.18.16-.25.16s-.14-.36-.14-.47V23.55c0-.18,0-.36-.2-.36a1,1,0,0,0-.48.25,5.83,5.83,0,0,1-2,.7c-.14,0-.32.09-.32.25s.38.23.59.23c1.08,0,.88,1,.88,1.83V36.76c0,1,.2,1.74-1,1.86-.25,0-.63,0-.63.31,0,.18.16.23.31.23.71,0,1.43-.09,2.16-.09s1.4.09,2.13.09a.24.24,0,0,0,.27-.25c0-.29-.41-.27-.64-.29-1.22-.12-1-.89-1-1.86Z"/><path class="cls-1" d="M45.77,29.69c0-.25.11-.56-.25-.56H42.89c-.18,0-.32-.05-.32.15s.43.3.64.3c1.22,0,1,.86,1,1.81v4.33a2.12,2.12,0,0,1-.38,1.67,3.09,3.09,0,0,1-2.43,1,2.61,2.61,0,0,1-2.26-1,5.34,5.34,0,0,1-.41-2.54V29.94c0-.34.11-.81-.36-.81H35.82c-.18,0-.29-.05-.29.13s.41.32.61.32c1.24,0,1,.86,1,1.81v3.44a4.89,4.89,0,0,0,.68,3.2,3.21,3.21,0,0,0,2.67,1.31c2.06,0,3.13-1.58,3.47-1.58s.18.81.18.92v.55c0,.11,0,.18.11.18s.2-.11.25-.14a7,7,0,0,1,2.26-1c.14,0,.48-.09.48-.29s-.16-.19-.29-.19l-.3,0c-1.09.09-.9-.62-.9-1.5Z"/><path class="cls-1" d="M51.67,23.55c0-.18,0-.36-.2-.36a1,1,0,0,0-.48.25,5.82,5.82,0,0,1-2,.7c-.13,0-.31.09-.31.25s.38.23.59.23c1.08,0,.88,1,.88,1.83V36.76c0,1,.2,1.74-1,1.86-.25,0-.63,0-.63.31,0,.18.15.23.31.23.71,0,1.43-.09,2.16-.09s1.4.09,2.12.09c.16,0,.28-.07.28-.25s-.41-.27-.64-.29c-1.22-.12-1-.89-1-1.86Z"/><path class="cls-1" d="M57,30.1c0-.63.32-.5.84-.5h1.26c.53,0,.71.11.71-.36,0-.18,0-.32-.21-.32H57.33c-.32,0-.36-.16-.36-.45V26.86c0-.13,0-.27-.18-.27s-.18.11-.23.2a5.24,5.24,0,0,1-2.15,2.29c-.11.09-.27.18-.27.34s.59.18.7.18c.43,0,.57-.07.57.41v5.82a4.57,4.57,0,0,0,.49,2.81,2.12,2.12,0,0,0,1.63.7,3.15,3.15,0,0,0,2.11-.86c.16-.11.45-.41.45-.63a.16.16,0,0,0-.15-.16c-.19,0-.8.79-1.64.79C57,38.48,57,36.81,57,35.83Z"/><path class="cls-1" d="M63.6,32.36c-.25,0-.77.07-.77-.29a3.29,3.29,0,0,1,.57-1.31,3.67,3.67,0,0,1,2.94-1.52,2.68,2.68,0,0,1,2,.7,2.11,2.11,0,0,1,.59,1.34c0,.54-.34.79-.84.9a14.13,14.13,0,0,1-2.62.18Zm6.84.55c.23,0,.27-.21.27-.39a3.72,3.72,0,0,0-4-3.69,6.05,6.05,0,0,0-4.08,1.52A4.59,4.59,0,0,0,61,34.13a5.3,5.3,0,0,0,8.74,3.94c.16-.13.89-.74.89-1a.18.18,0,0,0-.18-.18c-.3,0-1.14,1.48-3.36,1.48-2.74,0-4.39-2.2-4.39-4.74,0-.75.23-.7.93-.7Z"/><path class="cls-1" d="M74.63,30.1c0-.63.32-.5.84-.5h1.27c.52,0,.7.11.7-.36,0-.18,0-.32-.2-.32H75c-.32,0-.37-.16-.37-.45V26.86c0-.13,0-.27-.18-.27s-.18.11-.23.2a5.18,5.18,0,0,1-2.15,2.29c-.11.09-.27.18-.27.34s.59.18.7.18c.43,0,.57-.07.57.41v5.82a4.57,4.57,0,0,0,.5,2.81,2.1,2.1,0,0,0,1.63.7,3.17,3.17,0,0,0,2.11-.86c.15-.11.45-.41.45-.63a.17.17,0,0,0-.16-.16c-.18,0-.79.79-1.63.79-1.36,0-1.34-1.67-1.34-2.65Z"/><path class="cls-1" d="M84.19,33.79a1.25,1.25,0,0,1,.25-.09c.22,0,.16.55.16.64v1.35a2,2,0,0,1-.57,1.7,3,3,0,0,1-2.11.91A1.38,1.38,0,0,1,80.36,37c0-1.08.88-1.67,1.77-2.13ZM82,34.38c-1.27.59-3.35,1.56-3.35,3.17a2,2,0,0,0,2.13,1.79c2,0,3.44-1.72,3.65-1.72S84.87,39.2,86,39.2a2.91,2.91,0,0,0,1.6-.65c.16-.14.55-.45.55-.7a.18.18,0,0,0-.16-.18c-.2,0-.45.56-1,.56-.81,0-.79-1.31-.79-1.81V31.07c0-.61.09-1.17-.46-1.65a3.25,3.25,0,0,0-2.06-.59,6.31,6.31,0,0,0-4,1.56,2.51,2.51,0,0,0-1,1.61c0,.23.11.28.29.28a3,3,0,0,0,1-.3c.36-.16.47-.48.63-.82a2.68,2.68,0,0,1,2.61-1.9c1.4,0,1.45.93,1.45,2v1c0,.86,0,.88-.84,1.27Z"/><path class="cls-2" d="M97,37.48c-.61,0-2.11.46-2.11,1.2,0,.32.18.46.5.46.7,0,1.45-1.25,2.15-1.25a5.57,5.57,0,0,1,1.88.73,6,6,0,0,0,2.52.72,3.41,3.41,0,0,0,2.47-1,2.76,2.76,0,0,0,.74-1.77c0-.2-.06-.93-.38-.93a.18.18,0,0,0-.18.16,5.78,5.78,0,0,1,.11.64,1.44,1.44,0,0,1-1.61,1.31,4.52,4.52,0,0,1-1.08-.18,12.58,12.58,0,0,0-2.75-.39,5.5,5.5,0,0,0-1.69.25L101,34.63l3.53-3.17a8.63,8.63,0,0,1,1.74-1.25c.3-.18,1.32-.68,1.32-1.15,0-.25-.27-.34-.5-.34-.66,0-1.34,1-1.77,1.4l-.52.05a4.69,4.69,0,0,1-2.56-.75A5.27,5.27,0,0,0,100,28.7a2.7,2.7,0,0,0-2.81,2.76c0,.16,0,.68.28.68s.13-.27.13-.39c0-1,.57-1.47,1.54-1.47a6.79,6.79,0,0,1,1.59.27,9.74,9.74,0,0,0,2.28.34,6.33,6.33,0,0,0,2-.34,37.65,37.65,0,0,0-6.26,5.14l-1,1.05Z"/><path class="cls-2" d="M117.28,30.3c0,1.05-1.86,3.63-2.49,4.42-.8,1-2.81,3.42-4.19,3.42-.73,0-1-.75-1-1.38a10,10,0,0,1,2.06-4.8c1-1.25,2.56-2.83,4.22-2.83C116.6,29.13,117.28,29.47,117.28,30.3Zm.34-.81a2,2,0,0,0-1.75-.79,8.12,8.12,0,0,0-5.48,2.74,9.2,9.2,0,0,0-2.6,5.57c0,1.11.52,2.33,1.79,2.33,2.67,0,5.7-4.33,7-6.41l-1.38,4.49a4.7,4.7,0,0,0-.25,1.26.59.59,0,0,0,.61.66c.91,0,2.13-1.06,2.7-1.67a5.94,5.94,0,0,0,1.2-1.88.18.18,0,0,0-.16-.19c-.16,0-.32.3-.38.41-.28.43-1.34,1.86-1.91,1.86-.18,0-.22-.16-.22-.34a3.73,3.73,0,0,1,.18-.75l2.33-7.65a2.82,2.82,0,0,0,.11-.46c0-.31-.63-.2-.77-.2-.74,0-.7.11-.92.81Z"/><path class="cls-2" d="M130.64,34.61l.93-3a6.49,6.49,0,0,0,.34-1.84c0-.43,0-1.06-.61-1.06-.93,0-2.11,1.11-2.72,1.72A6.55,6.55,0,0,0,127.45,32c0,.09,0,.18.16.18s.36-.32.45-.46c.27-.4,1.43-1.74,1.95-1.74.2,0,.27.25.27.41A4.87,4.87,0,0,1,130,31.6l-2,6.54a3.36,3.36,0,0,0-.13.66c0,.36.49.27.72.27.79,0,.68,0,1-.88a22.69,22.69,0,0,1,3.22-6.12c.45-.59,1.86-2.33,2.76-2.33.48,0,.66.38.66.81a5.16,5.16,0,0,1-.32,1.45L134,38.16c0,.09-.18.57-.18.66,0,.34.61.25.77.25.79,0,.73-.14.93-.84a25,25,0,0,1,2.85-5.71c.57-.84,2.07-2.81,3.2-2.81.5,0,.75.21.75.75a9.16,9.16,0,0,1-.59,2.15l-1.18,3.27a9.26,9.26,0,0,0-.64,2.44c0,.61.23,1,.89,1,1,0,2.15-1.13,2.72-1.79.24-.27,1.13-1.34,1.13-1.74a.16.16,0,0,0-.18-.16c-.09,0-.16.11-.21.18-.36.57-1.6,2.33-2.33,2.33-.25,0-.36-.2-.36-.43a2,2,0,0,1,.18-.79l1.7-4.66a6.94,6.94,0,0,0,.5-2.23,1.28,1.28,0,0,0-1.43-1.35c-1.2,0-2.65,1.2-3.38,2.06a25,25,0,0,0-2.56,4l.71-2.31a6.94,6.94,0,0,0,.36-1.92c0-.86-.32-1.81-1.34-1.81-2.1,0-4.41,3.78-5.37,5.41Z"/><path class="cls-2" d="M155.28,30.3c0,1.05-1.85,3.63-2.49,4.42-.79,1-2.81,3.42-4.19,3.42-.72,0-1-.75-1-1.38a10,10,0,0,1,2.06-4.8c.95-1.25,2.56-2.83,4.21-2.83C154.6,29.13,155.28,29.47,155.28,30.3Zm.34-.81a1.92,1.92,0,0,0-1.74-.79,8.12,8.12,0,0,0-5.48,2.74A9.21,9.21,0,0,0,145.79,37c0,1.11.52,2.33,1.79,2.33,2.67,0,5.71-4.33,7-6.41l-1.38,4.49a4.34,4.34,0,0,0-.25,1.26.58.58,0,0,0,.61.66c.91,0,2.13-1.06,2.69-1.67a5.81,5.81,0,0,0,1.21-1.88.18.18,0,0,0-.16-.19c-.16,0-.32.3-.39.41-.27.43-1.33,1.86-1.9,1.86-.18,0-.23-.16-.23-.34a4.56,4.56,0,0,1,.18-.75l2.34-7.65a2.82,2.82,0,0,0,.11-.46c0-.31-.63-.2-.77-.2-.75,0-.7.11-.93.81Z"/><path class="cls-2" d="M163.05,29.62h1.75c.13,0,.45,0,.52-.13a.68.68,0,0,0,.09-.32c0-.2-.45-.13-.5-.13h-1.7l.59-1.89a2.14,2.14,0,0,0,.14-.58c0-.3-.57-.21-.73-.21s-.66-.07-.79.25L161.67,29h-1.36c-.34,0-.61,0-.61.4,0,.23.41.18.52.18h1.29l-2,6.57a7.24,7.24,0,0,0-.43,2c0,.52.2,1.2.83,1.2,1,0,2.45-1.58,3-2.35a4.22,4.22,0,0,0,.68-1.18.18.18,0,0,0-.18-.18c-.12,0-.19.16-.25.27s-.32.45-.41.61c-.32.43-1.16,1.52-1.7,1.52-.27,0-.36-.25-.36-.48a4.5,4.5,0,0,1,.27-1.08Z"/><path class="cls-2" d="M167,34.43c.52-2.13,2.22-5.3,4.73-5.3a1.19,1.19,0,0,1,1.34,1.29,3.58,3.58,0,0,1-.77,2.1C171.29,33.88,168.69,34.29,167,34.43Zm-.09.45.29-.05c2.4-.36,7.45-.7,7.45-4a2.37,2.37,0,0,0-2.63-2.15c-3.51,0-6.93,3.6-6.93,7.09a3.28,3.28,0,0,0,3.26,3.55,6,6,0,0,0,4.29-2.2c.11-.13.59-.67.59-.88a.14.14,0,0,0-.16-.16c-.12,0-.18.09-.25.18a4.89,4.89,0,0,1-3.56,2.07,2.32,2.32,0,0,1-2.4-2.61v-.52Z"/><path class="cls-2" d="M178.81,34.61l.93-3a6.49,6.49,0,0,0,.34-1.84c0-.43,0-1.06-.61-1.06-.93,0-2.11,1.11-2.72,1.72A6.55,6.55,0,0,0,175.62,32a.16.16,0,0,0,.16.18c.18,0,.36-.32.45-.46.27-.4,1.43-1.74,2-1.74.2,0,.27.25.27.41a4.48,4.48,0,0,1-.25,1.25l-2,6.54a2.76,2.76,0,0,0-.14.66c0,.36.5.27.73.27.79,0,.68,0,.95-.88a22.39,22.39,0,0,1,3.21-6.12c.46-.59,1.86-2.33,2.77-2.33.47,0,.65.38.65.81a5.52,5.52,0,0,1-.31,1.45l-1.88,6.16a5.39,5.39,0,0,0-.18.66c0,.34.61.25.77.25.79,0,.72-.14.92-.84a25.43,25.43,0,0,1,2.86-5.71c.57-.84,2.06-2.81,3.19-2.81.5,0,.75.21.75.75a9.16,9.16,0,0,1-.59,2.15l-1.18,3.27a9.64,9.64,0,0,0-.63,2.44c0,.61.23,1,.88,1,.95,0,2.15-1.13,2.72-1.79.25-.27,1.13-1.34,1.13-1.74a.16.16,0,0,0-.18-.16c-.09,0-.16.11-.2.18-.36.57-1.61,2.33-2.34,2.33-.24,0-.36-.2-.36-.43a2,2,0,0,1,.18-.79l1.7-4.66a6.94,6.94,0,0,0,.5-2.23,1.27,1.27,0,0,0-1.43-1.35c-1.2,0-2.65,1.2-3.37,2.06a24.32,24.32,0,0,0-2.56,4l.7-2.31a6.94,6.94,0,0,0,.36-1.92c0-.86-.31-1.81-1.33-1.81-2.11,0-4.42,3.78-5.37,5.41Z"/><path class="cls-2" d="M203.46,30.3c0,1.05-1.86,3.63-2.49,4.42-.8,1-2.81,3.42-4.19,3.42-.73,0-1.05-.75-1.05-1.38A9.89,9.89,0,0,1,197.8,32c.95-1.25,2.55-2.83,4.21-2.83C202.78,29.13,203.46,29.47,203.46,30.3Zm.34-.81a2,2,0,0,0-1.75-.79,8.12,8.12,0,0,0-5.48,2.74A9.2,9.2,0,0,0,194,37c0,1.11.52,2.33,1.79,2.33,2.67,0,5.7-4.33,7-6.41l-1.38,4.49a4.7,4.7,0,0,0-.25,1.26.59.59,0,0,0,.61.66c.91,0,2.13-1.06,2.7-1.67a5.94,5.94,0,0,0,1.2-1.88.18.18,0,0,0-.16-.19c-.16,0-.32.3-.38.41-.28.43-1.34,1.86-1.91,1.86-.18,0-.22-.16-.22-.34a3.73,3.73,0,0,1,.18-.75l2.33-7.65a2.82,2.82,0,0,0,.11-.46c0-.31-.63-.2-.77-.2-.74,0-.7.11-.92.81Z"/><path class="cls-2" d="M211.23,29.62H213c.14,0,.45,0,.52-.13a.68.68,0,0,0,.09-.32c0-.2-.45-.13-.5-.13h-1.69l.58-1.89a2.14,2.14,0,0,0,.14-.58c0-.3-.57-.21-.72-.21s-.66-.07-.8.25L209.85,29h-1.36c-.34,0-.61,0-.61.4,0,.23.4.18.52.18h1.29l-2,6.57a7.24,7.24,0,0,0-.43,2c0,.52.2,1.2.84,1.2,1,0,2.44-1.58,3-2.35a4,4,0,0,0,.68-1.18.18.18,0,0,0-.18-.18c-.11,0-.18.16-.25.27s-.32.45-.41.61c-.31.43-1.15,1.52-1.7,1.52-.27,0-.36-.25-.36-.48a4.5,4.5,0,0,1,.27-1.08Z"/><path class="cls-2" d="M219.58,25.75a.74.74,0,0,0-.74-.79c-.66,0-1.16.86-1.16,1.45a.75.75,0,0,0,.7.84C219.08,27.25,219.58,26.39,219.58,25.75Zm-4.75,10.69a8.46,8.46,0,0,0-.41,2c0,.52.11.9.7.9.95,0,2.22-1.31,2.76-2,.23-.3,1-1.22,1-1.61,0-.09,0-.16-.14-.16s-.25.16-.32.3c-.27.45-1.43,2.06-2,2.06-.21,0-.3-.18-.3-.41a3.33,3.33,0,0,1,.21-.91L218,31.19a6.91,6.91,0,0,0,.39-1.66c0-.49-.16-.83-.7-.83-.86,0-2.11,1.11-2.68,1.65-.18.18-1.11,1.18-1.11,1.47,0,.12,0,.18.14.18.3,0,1.56-2,2.33-2,.23,0,.28.23.28.41a3.94,3.94,0,0,1-.19.77Z"/><path class="cls-2" d="M223.09,34.63c.82-1.54,3.24-5,5.14-5a1,1,0,0,1,1,1.05,3.7,3.7,0,0,1-1.68,2.69,6.72,6.72,0,0,1-3.92,1.27Zm-.2.41c.7-.14,1,.59,1.26,1.11.66,1.49,1.34,3.19,3.24,3.19a2.15,2.15,0,0,0,2.31-2,1.1,1.1,0,0,0-1-1.24.58.58,0,0,0-.56.61c0,.81,1,.47,1,1.24a.93.93,0,0,1-1,.87c-1,0-1.52-1.32-1.88-2.07a3.11,3.11,0,0,0-1.5-1.81,10.79,10.79,0,0,0,4-1.11,3.83,3.83,0,0,0,2.13-3.1,1.94,1.94,0,0,0-1.9-2c-2.22,0-4.87,3.39-5.87,5.21l3-9.79a3,3,0,0,0,.19-.68.16.16,0,0,0-.16-.16,1.17,1.17,0,0,0-.25.07,4.5,4.5,0,0,1-2.58.57c-.19,0-.53,0-.53.22s.23.23.41.23c.41,0,1,.07,1,.61a5.85,5.85,0,0,1-.3,1.27l-3.66,12a2.27,2.27,0,0,0-.14.54c0,.32.59.23.75.23.88,0,.7-.2,1-1Z"/><path class="cls-2" d="M240,32.09c0,2.45-1.63,6.75-4.55,6.75-1.84,0-2.34-1.61-2.34-3.17,0-2.53,1.57-6.52,4.6-6.52C239.49,29.15,240,30.55,240,32.09Zm1.56,1a4.22,4.22,0,0,0-4-4.41,6.54,6.54,0,0,0-6.09,6.22c0,2.2,1.41,4.42,3.81,4.42a6.85,6.85,0,0,0,4.44-2.06A6.17,6.17,0,0,0,241.57,33.11Z"/><path class="cls-2" d="M255.11,25.75a.74.74,0,0,0-.74-.79c-.66,0-1.16.86-1.16,1.45a.75.75,0,0,0,.7.84C254.62,27.25,255.11,26.39,255.11,25.75Zm-4.75,10.69a8.46,8.46,0,0,0-.41,2c0,.52.11.9.7.9.95,0,2.22-1.31,2.77-2,.22-.3,1-1.22,1-1.61,0-.09,0-.16-.14-.16s-.25.16-.32.3c-.27.45-1.42,2.06-2,2.06-.2,0-.29-.18-.29-.41a3.31,3.31,0,0,1,.2-.91l1.68-5.43a7.39,7.39,0,0,0,.38-1.66c0-.49-.16-.83-.7-.83-.86,0-2.11,1.11-2.67,1.65-.19.18-1.11,1.18-1.11,1.47,0,.12,0,.18.13.18.3,0,1.57-2,2.34-2,.22,0,.27.23.27.41a4.8,4.8,0,0,1-.18.77Z"/><path class="cls-2" d="M267.21,31.62a5.35,5.35,0,0,0,.43-1.66,1.28,1.28,0,0,0-1.41-1.26c-2.92,0-5.57,4-6.82,6.25l0-.05,1-3.1a7.47,7.47,0,0,0,.39-2c0-.66-.23-1.11-.93-1.11-.95,0-2.13,1.13-2.7,1.81a5.51,5.51,0,0,0-1,1.47.16.16,0,0,0,.18.16c.14,0,.21-.14.25-.25.27-.48,1.52-2,2.11-2,.34,0,.45.24.45.54a4.83,4.83,0,0,1-.27,1.24l-2,6.6a2.33,2.33,0,0,0-.13.52c0,.38.47.27.7.27.72,0,.72-.11.93-.77a22.94,22.94,0,0,1,3.49-6.21c.7-.81,2.13-2.49,3.33-2.49a.72.72,0,0,1,.79.79,3.86,3.86,0,0,1-.32,1.23L264,35.9a7.5,7.5,0,0,0-.61,2.42c0,.66.3,1,1,1,.92,0,2.28-1.31,2.87-2a5.2,5.2,0,0,0,1-1.52.17.17,0,0,0-.16-.16c-.13,0-.22.14-.27.23-.38.57-1.65,2.15-2.38,2.15a.4.4,0,0,1-.43-.45,4.23,4.23,0,0,1,.34-1.15Z"/><path class="cls-2" d="M280.46,29.62h1.81c.13,0,.4.05.52-.11a.74.74,0,0,0,.09-.32c0-.2-.45-.15-.52-.15h-1.72l.43-1.39a8.66,8.66,0,0,1,1.36-3.1,1.72,1.72,0,0,1,1.11-.66c1,0,.13,1.7,1.54,1.7a.92.92,0,0,0,1-1c0-.95-.81-1.31-1.65-1.31A5.78,5.78,0,0,0,281,24.94a9.39,9.39,0,0,0-1.81,3.71l-.11.39h-1.32c-.36,0-.63,0-.63.43,0,.22.41.15.52.15h1.25L276,39.18a19.37,19.37,0,0,1-1.45,3.88,1.43,1.43,0,0,1-1.17.81c-.46,0-.46-.32-.43-.68,0-.65-.23-1.33-1-1.33a.94.94,0,0,0-1,1c0,1.06,1.18,1.45,2.06,1.45a3.9,3.9,0,0,0,3.19-1.95,11.17,11.17,0,0,0,1.34-3.26Z"/><path class="cls-2" d="M288.79,25.75A.75.75,0,0,0,288,25c-.66,0-1.15.86-1.15,1.45,0,.43.22.84.7.84C288.29,27.25,288.79,26.39,288.79,25.75ZM284,36.44a8.46,8.46,0,0,0-.41,2c0,.52.12.9.71.9.95,0,2.22-1.31,2.76-2,.23-.3,1-1.22,1-1.61,0-.09,0-.16-.14-.16s-.24.16-.31.3c-.27.45-1.43,2.06-2,2.06-.2,0-.29-.18-.29-.41a3.31,3.31,0,0,1,.2-.91l1.68-5.43a6.91,6.91,0,0,0,.39-1.66c0-.49-.16-.83-.71-.83-.86,0-2.1,1.11-2.67,1.65-.18.18-1.11,1.18-1.11,1.47,0,.12.05.18.14.18.29,0,1.56-2,2.33-2,.23,0,.27.23.27.41a4.8,4.8,0,0,1-.18.77Z"/><path class="cls-2" d="M290.57,37.48c-.61,0-2.1.46-2.1,1.2,0,.32.18.46.5.46.7,0,1.45-1.25,2.15-1.25a5.65,5.65,0,0,1,1.88.73,6,6,0,0,0,2.51.72,3.39,3.39,0,0,0,2.47-1,2.77,2.77,0,0,0,.75-1.77c0-.2-.07-.93-.39-.93a.18.18,0,0,0-.18.16,5.35,5.35,0,0,1,.12.64,1.45,1.45,0,0,1-1.61,1.31,4.52,4.52,0,0,1-1.09-.18,12.58,12.58,0,0,0-2.74-.39,5.56,5.56,0,0,0-1.7.25l3.42-2.85,3.53-3.17a8.7,8.7,0,0,1,1.75-1.25c.29-.18,1.31-.68,1.31-1.15,0-.25-.27-.34-.5-.34-.65,0-1.33,1-1.76,1.4l-.52.05a4.66,4.66,0,0,1-2.56-.75,5.27,5.27,0,0,0-2.22-.72,2.7,2.7,0,0,0-2.81,2.76c0,.16,0,.68.27.68s.14-.27.14-.39c-.05-1,.56-1.47,1.54-1.47a6.71,6.71,0,0,1,1.58.27,9.91,9.91,0,0,0,2.29.34,6.22,6.22,0,0,0,2-.34,38,38,0,0,0-6.25,5.14l-1,1.05Z"/><path class="cls-2" d="M307,25.75a.75.75,0,0,0-.75-.79c-.66,0-1.15.86-1.15,1.45,0,.43.22.84.7.84C306.54,27.25,307,26.39,307,25.75Zm-4.76,10.69a8.46,8.46,0,0,0-.41,2c0,.52.12.9.71.9.95,0,2.22-1.31,2.76-2,.23-.3,1-1.22,1-1.61,0-.09,0-.16-.13-.16s-.25.16-.32.3c-.27.45-1.43,2.06-2,2.06-.2,0-.29-.18-.29-.41a3.31,3.31,0,0,1,.2-.91l1.68-5.43a6.91,6.91,0,0,0,.39-1.66c0-.49-.16-.83-.71-.83-.86,0-2.1,1.11-2.67,1.65-.18.18-1.11,1.18-1.11,1.47,0,.12.05.18.14.18.29,0,1.56-2,2.33-2,.23,0,.27.23.27.41a3.92,3.92,0,0,1-.18.77Z"/><path class="cls-2" d="M310.55,34.63c.81-1.54,3.24-5,5.14-5a1,1,0,0,1,1,1.05A3.69,3.69,0,0,1,315,33.36a6.72,6.72,0,0,1-3.92,1.27Zm-.21.41c.7-.14,1,.59,1.27,1.11.66,1.49,1.34,3.19,3.24,3.19a2.15,2.15,0,0,0,2.31-2,1.1,1.1,0,0,0-1-1.24.59.59,0,0,0-.57.61c0,.81,1,.47,1,1.24a.93.93,0,0,1-1,.87c-1,0-1.52-1.32-1.88-2.07a3.1,3.1,0,0,0-1.49-1.81,10.9,10.9,0,0,0,4-1.11,3.83,3.83,0,0,0,2.13-3.1,1.94,1.94,0,0,0-1.9-2c-2.22,0-4.87,3.39-5.87,5.21l3-9.79a3,3,0,0,0,.18-.68.16.16,0,0,0-.16-.16,1.09,1.09,0,0,0-.24.07,4.51,4.51,0,0,1-2.59.57c-.18,0-.52,0-.52.22s.23.23.41.23c.41,0,1,.07,1,.61a6.5,6.5,0,0,1-.3,1.27l-3.67,12a2.82,2.82,0,0,0-.13.54c0,.32.59.23.74.23.89,0,.71-.2,1-1Z"/><path class="cls-2" d="M327.46,32.09c0,2.45-1.63,6.75-4.55,6.75-1.83,0-2.33-1.61-2.33-3.17,0-2.53,1.56-6.52,4.6-6.52C326.94,29.15,327.46,30.55,327.46,32.09Zm1.57,1a4.22,4.22,0,0,0-4-4.41A6.53,6.53,0,0,0,319,34.92c0,2.2,1.4,4.42,3.8,4.42a6.83,6.83,0,0,0,4.44-2.06A6.13,6.13,0,0,0,329,33.11Z"/><path class="cls-1" d="M80.86,11.89a3.85,3.85,0,0,1-.82,3,5.16,5.16,0,0,1-3.67,1.22c-1.24,0-3-.31-3.66-1.47-.53-.84-.48-2.49-.48-3.49V4.78c0-1.43-.11-1.86,1.47-1.86.21,0,.59,0,.59-.3s-.18-.31-.38-.31c-.86,0-1.73.09-2.59.09s-1.67-.09-2.53-.09c-.23,0-.39.07-.39.31s.36.3.57.3c1.58,0,1.47.43,1.47,1.86v7.11c0,1.49,0,2.79,1.34,3.76a7.82,7.82,0,0,0,4.21,1,6.52,6.52,0,0,0,4.26-1.2c1.22-1.06,1.24-2.15,1.24-3.6V4.82c0-1-.11-1.9,1.18-1.9.21,0,.73,0,.73-.32s-.3-.29-.48-.29c-.59,0-1.18.09-1.77.09s-1.36-.09-2-.09c-.23,0-.48.07-.48.31s.41.3.61.3c.52,0,1.09,0,1.36.52a6.13,6.13,0,0,1,.25,2.24Z"/><path class="cls-1" d="M84.89,14.11c0,1,.2,1.74-1,1.86-.25,0-.63,0-.63.31,0,.18.16.23.31.23.71,0,1.43-.09,2.16-.09s1.4.09,2.13.09a.24.24,0,0,0,.27-.25c0-.29-.41-.27-.64-.29-1.22-.12-1-.89-1-1.86V10.3a2.46,2.46,0,0,1,.73-2.08,3.1,3.1,0,0,1,2.24-1,2.5,2.5,0,0,1,2.13,1A4.15,4.15,0,0,1,92,10.51v3.6c0,1,.2,1.74-1,1.86-.25,0-.64,0-.64.31,0,.18.16.23.32.23.7,0,1.43-.09,2.15-.09s1.41.09,2.13.09c.16,0,.27-.07.27-.25s-.4-.27-.63-.29c-1.22-.12-1-.89-1-1.86V10.53a4.72,4.72,0,0,0-.68-3.13,3.22,3.22,0,0,0-2.67-1.22C88.11,6.18,86.84,8,86.45,8V6.54c0-.16,0-.36-.2-.36s-.29.18-.41.29A4.92,4.92,0,0,1,84,7.65c-.2.07-.52.12-.52.39s.14.18.27.18H84c.18,0,.52,0,.65.18s.23,1.13.23,1.45Z"/><path class="cls-1" d="M98.75,4.21a1,1,0,0,0,1-1.13A1,1,0,0,0,98.79,2a1.07,1.07,0,0,0-1,1.13A1,1,0,0,0,98.75,4.21Zm.79,2.33c0-.16,0-.36-.2-.36s-.3.18-.41.29a5,5,0,0,1-1.88,1.18c-.2.07-.52.12-.52.39s.13.18.27.18h.29c.19,0,.53,0,.66.18S98,9.53,98,9.85v4.26c0,1,.2,1.74-1,1.86-.25,0-.64,0-.64.31,0,.18.16.23.32.23.7,0,1.43-.09,2.15-.09s1.41.09,2.13.09c.16,0,.27-.07.27-.25s-.4-.27-.63-.29c-1.22-.12-1-.89-1-1.86Z"/><path class="cls-1" d="M107.26,14.36,105,8.69a4.14,4.14,0,0,1-.36-1.13c0-.43.43-.63.84-.63.15,0,.63.07.63-.21s-.23-.25-.43-.25h-4.1c-.18,0-.34,0-.34.21s.25.25.43.25c.95,0,1.06.47,1.4,1.31l3.29,7.93.13.29c0,.09.1.23.21.23s.34-.45.38-.52l3.24-7c.39-.84.8-2.09,1.86-2.22.18,0,.57,0,.57-.3s-.12-.16-.3-.16h-3.33c-.18,0-.34,0-.34.21s.41.25.61.25c.41,0,.89.16.89.61a2.81,2.81,0,0,1-.3,1Z"/><path class="cls-1" d="M114.46,9.71c-.24,0-.77.07-.77-.29a3.23,3.23,0,0,1,.57-1.31,3.65,3.65,0,0,1,2.95-1.52,2.69,2.69,0,0,1,2,.7,2.15,2.15,0,0,1,.58,1.34c0,.54-.33.79-.83.9a14.3,14.3,0,0,1-2.63.18Zm6.85.55c.22,0,.27-.21.27-.39a4,4,0,0,0-.8-2.28,4.12,4.12,0,0,0-3.26-1.41,6,6,0,0,0-4.07,1.52,4.57,4.57,0,0,0-1.64,3.78,5.3,5.3,0,0,0,8.75,3.94c.16-.13.88-.74.88-1a.18.18,0,0,0-.18-.18c-.29,0-1.13,1.47-3.35,1.47a4.42,4.42,0,0,1-4.4-4.73c0-.75.23-.7.93-.7Z"/><path class="cls-1" d="M123.84,14.11c0,1,.21,1.74-1,1.86-.24,0-.63,0-.63.31,0,.18.16.23.32.23.7,0,1.42-.09,2.15-.09s1.4.09,2.13.09c.16,0,.27-.07.27-.25s-.41-.27-.63-.29c-1.23-.12-1-.89-1-1.86V10.53a3.15,3.15,0,0,1,.52-2.26c.25-.34.65-.82,1.15-.82s.68.86,1.45.86a.88.88,0,0,0,.95-.91,1.16,1.16,0,0,0-1.29-1.08c-1.56,0-2.44,1.81-2.67,1.81s-.11-.39-.11-.48V6.54c0-.16,0-.36-.21-.36s-.29.18-.41.29a4.92,4.92,0,0,1-1.88,1.18c-.2.07-.52.12-.52.39s.14.18.28.18H123a1,1,0,0,1,.66.18c.25.25.22,1.13.22,1.45Z"/><path class="cls-1" d="M138.7,7.29a1.69,1.69,0,0,0,.36-.66c0-.2-.27-.16-.41-.16h-5.52c-.57,0-1.16,0-1.16-.65,0-.16,0-.36-.22-.36s-.37.49-.41.63l-.59,1.72a4,4,0,0,0-.16.52.18.18,0,0,0,.2.18c.19,0,.3-.22.39-.36a3,3,0,0,1,1.13-.93A4.46,4.46,0,0,1,134.12,7h2.27c.11,0,.38,0,.38.16a1.28,1.28,0,0,1-.27.5l-6,8c0,.09-.32.39-.32.52,0,.34.63.23.82.23h7.7c.45,0,.34-.52.34-.79l0-1.11c0-.16.12-.86-.2-.86s-.27.29-.32.45a2.5,2.5,0,0,1-1,1.45,5.5,5.5,0,0,1-2.26.34h-2c-.09,0-.8,0-.8-.18s.28-.48.37-.57Z"/><path class="cls-1" d="M145.93,11.14a1.17,1.17,0,0,1,.24-.09c.23,0,.16.54.16.63V13a2,2,0,0,1-.56,1.7,3,3,0,0,1-2.11.91,1.38,1.38,0,0,1-1.56-1.34c0-1.09.88-1.67,1.76-2.13Zm-2.18.59c-1.27.59-3.35,1.56-3.35,3.17a2,2,0,0,0,2.13,1.79c2,0,3.44-1.72,3.64-1.72s.43,1.58,1.54,1.58a3,3,0,0,0,1.61-.65c.16-.14.55-.45.55-.7a.19.19,0,0,0-.16-.19c-.21,0-.45.57-1,.57-.82,0-.79-1.31-.79-1.81V8.42c0-.61.09-1.17-.46-1.65a3.26,3.26,0,0,0-2.06-.59,6.31,6.31,0,0,0-4,1.56,2.51,2.51,0,0,0-1,1.61c0,.23.11.27.29.27a2.88,2.88,0,0,0,1-.29c.37-.16.48-.48.64-.82a2.68,2.68,0,0,1,2.6-1.9c1.41,0,1.45.93,1.45,2v1c0,.86,0,.88-.84,1.27Z"/><path class="cls-1" d="M163,8.49a4.43,4.43,0,0,0,.43-1.63.72.72,0,0,0-.79-.81,3.54,3.54,0,0,0-1.77.81,6.72,6.72,0,0,0-1.63,1.65c-.07.12-.29.41-.29.55s0,.18.13.18.23-.14.27-.21c.3-.45,1.52-1.88,2.09-1.88a.31.31,0,0,1,.32.34,3.94,3.94,0,0,1-.34,1l-1.64,4a8.22,8.22,0,0,0-.63,2.22c0,1.41.75,2,2.06,2,3.72,0,7.52-5.87,7.52-9.24,0-.54-.22-1.63-.93-1.63-.47,0-.77.59-.77,1a2,2,0,0,0,.43,1.12,1.43,1.43,0,0,1,.28.92c0,2.43-3.27,7.09-5.87,7.09a1.14,1.14,0,0,1-1.16-1.17,5.11,5.11,0,0,1,.46-1.73Z"/><path class="cls-1" d="M184.49,14a3.1,3.1,0,0,0,.13-.62.19.19,0,0,0-.22-.2c-.25,0-.39.41-.48.59-1.11,2.26-2.74,2.08-4.94,2.08-.38,0-.93.09-.93-.45a3.1,3.1,0,0,1,.19-.77l3.08-10c.34-1.08.47-1.74,2-1.72.22,0,.68,0,.68-.29s-.23-.27-.43-.27c-.88,0-1.79.09-2.67.09-.71,0-1.41-.07-2.11-.09-.18,0-.7-.12-.7.18s.31.41.56.38c.48-.06,1.11-.09,1.11.59a4.62,4.62,0,0,1-.27,1.11l-2.92,9.54a3.13,3.13,0,0,1-.77,1.54,2,2,0,0,1-1.2.25c-.25,0-.59,0-.59.36s.95.16,1.2.16h7.72c.8,0,.82,0,1.05-.73Z"/><path class="cls-1" d="M190.44,8.51a6.79,6.79,0,0,0,.39-1.63c0-.5-.16-.83-.7-.83-.87,0-2.09,1.1-2.66,1.65-.18.16-1.13,1.15-1.13,1.45,0,.11,0,.18.16.18.3,0,1.54-2,2.33-2,.21,0,.28.23.28.41a4.11,4.11,0,0,1-.21.74l-3.33,10.9c-.2.7-.45,1.83-1.38,1.83s-.86-1.4-1.79-1.4a.78.78,0,0,0-.77.79c0,.86,1,1.13,1.75,1.13a4,4,0,0,0,2.71-1.2A8.54,8.54,0,0,0,187.86,17Zm1.61-5.41a.73.73,0,0,0-.72-.79c-.66,0-1.16.86-1.16,1.43s.23.85.7.85C191.57,4.59,192.05,3.74,192.05,3.1Z"/><path class="cls-1" d="M200.72,10.64l-1,3.22a9.12,9.12,0,0,0-.4,2c0,.39.13.84.61.84,1.06,0,2.45-1.13,3.1-1.88a7,7,0,0,0,1.16-1.74.16.16,0,0,0-.16-.16c-.11,0-.2.16-.27.25-.36.61-1.61,2.24-2.38,2.24-.25,0-.36-.25-.36-.45a3.58,3.58,0,0,1,.2-.95l2.2-7.19a2.25,2.25,0,0,0,.13-.54c0-.34-.59-.22-.77-.22-.86,0-.7.11-.95,1a16.58,16.58,0,0,1-3.37,6.07c-.64.74-2.52,2.6-3.58,2.6a.56.56,0,0,1-.61-.63,4.43,4.43,0,0,1,.25-1.09l1.81-5.41a4.94,4.94,0,0,0,.34-1.5c0-.47-.16-1-.73-1a4.71,4.71,0,0,0-2.49,1.49,6.18,6.18,0,0,0-1.22,1.86c0,.09,0,.13.11.13s.41-.36.5-.5c.29-.43,1.31-1.76,1.9-1.76.25,0,.32.18.32.38a3.93,3.93,0,0,1-.25.89L193,13.68a6.58,6.58,0,0,0-.43,1.83c0,.68.25,1.18,1,1.18,1.38,0,2.92-1.16,3.89-2a18.88,18.88,0,0,0,3.08-3.78Z"/><path class="cls-1" d="M214.88,9.08c0,2.72-2.81,7.23-5.8,7.23-.93,0-1.68-.46-1.68-1.45,0-2.16,3.88-7.77,6.21-7.77C214.65,7.09,214.88,8.27,214.88,9.08Zm-8.15,2.33a9.61,9.61,0,0,0-.59,2.65c0,1.79,1.29,2.63,3,2.63,3.82,0,7.45-3.81,7.45-7.61,0-1.43-.66-3-2.31-3-2.2,0-4.94,3.37-5.94,5.16L211.46.86c0-.16-.07-.23-.2-.23a.35.35,0,0,0-.23.09,3.84,3.84,0,0,1-2.33.57c-.23,0-.71,0-.71.36s.66.23.8.23c.36,0,.61.09.61.52a5.16,5.16,0,0,1-.27,1.13Z"/><path class="cls-1" d="M218,13.81a7.49,7.49,0,0,0-.41,2c0,.52.11.88.7.88,1,0,2.25-1.31,2.77-2,.22-.27.95-1.2.95-1.61,0-.09,0-.16-.11-.16s-.28.18-.34.3c-.28.47-1.43,2.06-2,2.06-.23,0-.32-.2-.32-.39a3,3,0,0,1,.22-.9l3.88-12.64a4.27,4.27,0,0,0,.13-.54c0-.12-.06-.21-.18-.21a.53.53,0,0,0-.2.09,4.65,4.65,0,0,1-2.61.86c-.22,0-.68,0-.68.3a.25.25,0,0,0,.28.25l.36,0c.38,0,.88,0,.88.57a5.22,5.22,0,0,1-.22.93Z"/><path class="cls-1" d="M228,8.51a7.27,7.27,0,0,0,.38-1.63c0-.5-.16-.83-.7-.83-.86,0-2.08,1.1-2.65,1.65-.18.16-1.13,1.15-1.13,1.45,0,.11,0,.18.16.18.29,0,1.54-2,2.33-2,.2,0,.27.23.27.41a5.08,5.08,0,0,1-.2.74l-3.33,10.9c-.21.7-.46,1.83-1.39,1.83s-.86-1.4-1.78-1.4a.78.78,0,0,0-.77.79c0,.86,1,1.13,1.74,1.13a4,4,0,0,0,2.72-1.2A8.64,8.64,0,0,0,225.36,17Zm1.6-5.41a.73.73,0,0,0-.72-.79c-.66,0-1.16.86-1.16,1.43s.23.85.71.85C229.08,4.59,229.55,3.74,229.55,3.1Z"/><path class="cls-1" d="M238.59,7.65c0,1-1.86,3.63-2.49,4.42-.8,1-2.81,3.42-4.19,3.42-.73,0-1-.75-1-1.38a10,10,0,0,1,2.07-4.8c.95-1.25,2.56-2.84,4.21-2.84C237.91,6.47,238.59,6.81,238.59,7.65Zm.34-.81a2,2,0,0,0-1.75-.79,8.12,8.12,0,0,0-5.48,2.74,9.17,9.17,0,0,0-2.6,5.57c0,1.11.52,2.33,1.79,2.33,2.67,0,5.71-4.33,7-6.41l-1.38,4.49a4.7,4.7,0,0,0-.25,1.26.59.59,0,0,0,.61.66c.91,0,2.13-1.06,2.7-1.68a5.73,5.73,0,0,0,1.2-1.88.18.18,0,0,0-.16-.18c-.16,0-.32.3-.38.41-.27.43-1.34,1.86-1.91,1.86-.18,0-.22-.16-.22-.34a3.73,3.73,0,0,1,.18-.75l2.33-7.66a3,3,0,0,0,.11-.45c0-.31-.63-.2-.76-.2-.75,0-.71.11-.93.81Z"/><path class="cls-1" d="M253.61,9A5.35,5.35,0,0,0,254,7.31a1.28,1.28,0,0,0-1.41-1.26c-2.92,0-5.57,4-6.82,6.25l0-.05,1-3.1a7.47,7.47,0,0,0,.39-2c0-.65-.23-1.1-.93-1.1-.95,0-2.13,1.13-2.7,1.81a5.51,5.51,0,0,0-1,1.47.16.16,0,0,0,.18.16c.14,0,.2-.14.25-.25.27-.48,1.52-2,2.11-2,.34,0,.45.24.45.54A4.83,4.83,0,0,1,245.25,9l-2,6.6a2.33,2.33,0,0,0-.13.52c0,.38.47.27.7.27.72,0,.72-.11.93-.77a22.67,22.67,0,0,1,3.49-6.21c.7-.81,2.12-2.49,3.32-2.49a.72.72,0,0,1,.8.79A3.86,3.86,0,0,1,252,9l-1.61,4.28a7.5,7.5,0,0,0-.61,2.42c0,.66.3,1,1,1,.93,0,2.29-1.31,2.88-2a5.2,5.2,0,0,0,1-1.52.17.17,0,0,0-.16-.16c-.13,0-.22.14-.27.23-.38.57-1.65,2.15-2.38,2.15a.4.4,0,0,1-.43-.45,4.4,4.4,0,0,1,.34-1.16Z"/><path class="cls-1" d="M262.21,3.1a.74.74,0,0,0-.74-.79c-.66,0-1.16.86-1.16,1.45a.74.74,0,0,0,.7.83C261.71,4.59,262.21,3.74,262.21,3.1Zm-4.75,10.69a8.48,8.48,0,0,0-.41,2c0,.53.11.91.7.91.95,0,2.22-1.31,2.76-2,.23-.3,1-1.23,1-1.61,0-.09,0-.16-.14-.16s-.25.16-.32.29c-.27.46-1.42,2.07-2,2.07-.21,0-.3-.18-.3-.41a3.33,3.33,0,0,1,.21-.91l1.67-5.43A6.91,6.91,0,0,0,261,6.88c0-.5-.16-.83-.7-.83-.86,0-2.11,1.1-2.68,1.65-.18.18-1.1,1.18-1.1,1.47,0,.11,0,.18.13.18.3,0,1.56-2,2.33-2,.23,0,.28.23.28.41a4.13,4.13,0,0,1-.19.77Z"/><rect class="cls-3" x="133.37" y="153.34" width="64.03" height="64.03"/><path class="cls-1" d="M154.61,151.27H133.37V138.94h.4v11.74h20.84Zm4.63,0H156v-.59h3.25Zm7.08,0h-5.71v-.59h5.71Zm5.44,0h-4.07v-.59h4.07Zm2.26,0h-.88v-.59H174Zm23.4,0h-22v-.59h21.3V139.58h.73Zm-.73-13V124.21h.73v14.07ZM177.46,123h18.95v.56Zm-13.54,1.84a2,2,0,0,1,1.48-.68A1.72,1.72,0,0,1,167,125v4h-.72v-3.77a1.32,1.32,0,0,0-1.27-.76A1.75,1.75,0,0,0,163.92,124.84Zm-.5-8.4,1.94-1.42,1.4.93a1.66,1.66,0,0,1,.68,1.31v2.17h-.6v-2.18a1.42,1.42,0,0,0-.58-1.12l-1.19-.8Zm3.22-12.12v-2.4l-3.16-.58h3.76v3Zm-1.47-5.66V87.26h.4v11.4Zm-2,6.35h4.16l3.14,2.52h-.83l-2.74-2.23Zm-3.77,3.22h11.21L172.8,117h-.6l-2.11-8.36Zm-26.09,28.36V123.91h.39v12.68ZM175.06,150h-.71V139.58h.71Zm-18.61-11.63H174v.59ZM194,117.72l-1.93-5.46-18.4-.45h18.86l2.14,5.9Zm-32.64-1.8,4-2.6,4.16,2.6v4.16h-.73v-4l-3.43-2.48Zm3.73-6.09a.3.3,0,1,1,.59,0,.3.3,0,1,1-.59,0Zm-.48,2.73.1-.47h1l-.32-1.41.8,1.88Zm-3.51-.44a.26.26,0,0,1,.26-.26.25.25,0,0,1,.26.26.26.26,0,0,1-.26.26A.26.26,0,0,1,161.08,112.12Zm-.26,2.14,0-.38h.79l-.21-1.09.63,1.47ZM138.29,129h-.6v-3.15l-1.06-.21h1.66Zm16.64,7.55V124.21h.71v12.38ZM135.68,123h18.93v.48Zm19.26,27V139.58h.7V150Zm-19.26-11.64h18.93v.48Zm.68-20.27,1.89-6.19h19.19v.44h-18.9Zm59.25,21-20-.7h20Zm-52.34-10h-.6v-3.15l-1.07-.21h1.67Zm4.84,0h-.6v-3.15l-1.06-.21h1.66Zm4.87,0h-.6v-3.15l-1.07-.21H153Zm7,0h-.59v-3.15l-1.07-.21H160Zm12.45,0h-.6v-3.15l-1.07-.21h1.67Zm6.4,0h-.6v-3.15l-1.07-.21h1.67Zm5,0h-.59v-3.15l-1.07-.21h1.66Zm4.85,0H188v-3.15l-1.07-.21h1.67Zm4.86,0h-.59v-3.15l-1.07-.21h1.66Zm-55.2,15h-.6V140.9l-1.06-.2h1.66Zm5,0h-.6V140.9l-1.07-.2h1.67Zm4.84,0h-.6V140.9l-1.06-.2h1.66Zm4.87,0h-.6V140.9l-1.07-.2H153Zm25.83,0h-.6V140.9l-1.07-.2h1.67Zm5,0h-.59V140.9l-1.07-.2h1.66Zm4.85,0H188V140.9l-1.07-.2h1.67Zm4.86,0h-.59V140.9l-1.07-.2h1.66Zm-55.2,5.46h-.6v-2.3l-1.06-.21h1.66Zm5,0h-.6v-2.3L141.6,147h1.67Zm4.84,0h-.6v-2.3l-1.06-.21h1.66Zm4.87,0h-.6v-2.3l-1.07-.21H153Zm25.83,0h-.6v-2.3l-1.07-.21h1.67Zm5,0h-.59v-2.3l-1.07-.21h1.66Zm4.85,0H188v-2.3L187,147h1.67Zm4.86,0h-.59v-2.3l-1.07-.21h1.66Zm-36.21-28h-.59v-3.25l-1-.3h1.59Zm0-4.57h-1.46v-.58h.82l-.41-2.37ZM175,121.53h-.59v-3.25l-1-.3H175Zm0-4.57h-1.47v-.58h.83L174,114Zm22.39,5.1h-.59v-3.83l-1.49-.59h2.08Zm0-5.13h-2v-.56h1.28l-.52-3.61Zm-62.22,5.13h-.59v-3.83l-1.5-.59h2.09Zm0-5.13h-2v-.56h1.29l-.52-3.61ZM169,112.12a.25.25,0,0,1,.26-.26.26.26,0,0,1,.26.26.26.26,0,0,1-.26.26A.26.26,0,0,1,169,112.12Zm-.29,2.14,0-.38h.79l-.21-1.09.63,1.47ZM167.38,150h-.77v-7.51a1.74,1.74,0,0,0-1.7-1.87,1.7,1.7,0,0,0-1.12.41,2,2,0,0,1,3.61,1.21Zm5.36,0h-.62v-7.12a1.3,1.3,0,0,0-1.19-1.44,1.15,1.15,0,0,0-.85.39,1.44,1.44,0,0,1,1.2-.68,1.54,1.54,0,0,1,1.46,1.62Zm-12.49,0h-.61v-7.12a1.29,1.29,0,0,0-1.18-1.44,1.12,1.12,0,0,0-.85.39,1.42,1.42,0,0,1,1.19-.68,1.55,1.55,0,0,1,1.47,1.62Zm12.17-13.37h-.57v-3.65a.58.58,0,0,0-.57-.62.56.56,0,0,0-.41.18.83.83,0,0,1,1.55.41Zm-6.06,0V133a1.34,1.34,0,0,0-1.31-1.44,1.32,1.32,0,0,0-1.16.69,1.63,1.63,0,0,1,3.16.58v3.78Zm-6.34,0h-.57v-3.65a.58.58,0,0,0-.57-.62.6.6,0,0,0-.42.18.86.86,0,0,1,.73-.43.84.84,0,0,1,.83.84Zm18.81,0h-.57v-3.65a.57.57,0,0,0-.56-.62.58.58,0,0,0-.42.18.86.86,0,0,1,.73-.43.84.84,0,0,1,.83.84Zm4.91,0h-.57v-3.65a.58.58,0,0,0-.57-.62.56.56,0,0,0-.41.18.83.83,0,0,1,1.55.41Zm4.87,0H188v-3.65a.58.58,0,0,0-.57-.62.56.56,0,0,0-.41.18.83.83,0,0,1,.72-.43.85.85,0,0,1,.84.84Zm4.83,0h-.57v-3.65a.58.58,0,0,0-.57-.62.56.56,0,0,0-.41.18.83.83,0,0,1,1.55.41Zm-40.5,0h-.58v-3.65a.57.57,0,0,0-.56-.62.58.58,0,0,0-.42.18.85.85,0,0,1,.73-.43.84.84,0,0,1,.83.84Zm-4.83,0h-.57v-3.65a.58.58,0,0,0-.57-.62.6.6,0,0,0-.42.18.86.86,0,0,1,.73-.43.84.84,0,0,1,.83.84Zm-4.87,0h-.57v-3.65a.57.57,0,0,0-1-.44.86.86,0,0,1,.73-.43.84.84,0,0,1,.83.84Zm-4.92,0h-.57v-3.65a.58.58,0,0,0-.57-.62.56.56,0,0,0-.41.18.83.83,0,0,1,1.55.41Zm13.44-20.34a.26.26,0,1,1,.51,0,.26.26,0,0,1-.51,0Zm1,3.89h-.53v-2.47a.62.62,0,0,0-.6-.66.6.6,0,0,0-.29.08.83.83,0,0,1,1.42.59Zm-5.16-3.89a.26.26,0,0,1,.25-.26.26.26,0,0,1,.26.26.26.26,0,0,1-.26.25A.25.25,0,0,1,147.58,116.25Zm1,3.89H148v-2.47a.62.62,0,0,0-.6-.66.55.55,0,0,0-.29.08.82.82,0,0,1,.58-.25.84.84,0,0,1,.83.84ZM143,116.25a.26.26,0,0,1,.26-.26.26.26,0,0,1,.25.26.25.25,0,0,1-.25.25A.26.26,0,0,1,143,116.25Zm1,3.89h-.53v-2.47a.61.61,0,0,0-.6-.66.6.6,0,0,0-.29.08.83.83,0,0,1,1.42.59Zm1.9-5.25h-.46v-1.17a.53.53,0,0,0-.52-.57.43.43,0,0,0-.25.07.69.69,0,0,1,.51-.22.73.73,0,0,1,.72.73Zm4.85,0h-.46v-1.17a.54.54,0,0,0-.53-.57.45.45,0,0,0-.25.07A.69.69,0,0,1,150,113a.73.73,0,0,1,.73.73Zm30,0h-.46v-1.17a.54.54,0,0,0-.53-.57.45.45,0,0,0-.25.07A.69.69,0,0,1,180,113a.73.73,0,0,1,.73.73Zm-2.47,1.36a.26.26,0,0,1,.25-.26.26.26,0,0,1,.26.26.26.26,0,0,1-.26.25A.25.25,0,0,1,178.24,116.25Zm1,3.89h-.52v-2.47a.62.62,0,0,0-.6-.66.55.55,0,0,0-.29.08.82.82,0,0,1,1.41.59Zm6.43-5.25h-.47v-1.17a.53.53,0,0,0-.52-.57.43.43,0,0,0-.25.07.69.69,0,0,1,.51-.22.73.73,0,0,1,.73.73Zm-2.81,1.36a.26.26,0,0,1,.26-.26.26.26,0,0,1,.25.26.25.25,0,0,1-.25.25A.26.26,0,0,1,182.83,116.25Zm1,3.89h-.53v-2.47a.62.62,0,0,0-.6-.66.6.6,0,0,0-.29.08.83.83,0,0,1,1.42.59Zm3.21-3.89a.26.26,0,1,1,.51,0,.26.26,0,0,1-.51,0Zm1,3.89h-.53v-2.47a.62.62,0,0,0-.6-.66.6.6,0,0,0-.29.08.83.83,0,0,1,1.42.59Zm-50.61-18.21a.28.28,0,1,1,.28.28A.28.28,0,0,1,137.39,101.93Zm1.66,9h-.6v-3.11a1.29,1.29,0,0,0-1.26-1.38,1.33,1.33,0,0,0-.62.16,1.54,1.54,0,0,1,1-.34,1.52,1.52,0,0,1,1.52,1.52Zm-.29-5.36h-1.84V105h1.16l-.36-2.36Zm53.29-3.69a.28.28,0,1,1,.28.28A.29.29,0,0,1,192.05,101.93Zm1.66,9h-.59v-3.11a1.29,1.29,0,0,0-1.26-1.38,1.26,1.26,0,0,0-.61.16,1.51,1.51,0,0,1,2.47,1.18Zm-.28-5.36h-1.85V105h1.16l-.37-2.36Zm-28.06-6.27a1.43,1.43,0,0,1,1.43,1.35h-.49a1.22,1.22,0,0,0-2.37-.07A1.44,1.44,0,0,1,165.37,99.35Zm4.38,23.22H174v.58l-4.53-.12c-.48-1.21-2.27-2.1-4.38-2.1s-3.67.79-4.27,1.88c.57-1.2,2.38-2.07,4.52-2.07A5.29,5.29,0,0,1,169.75,122.57Zm5.31,1.1v13h-.69l0-13Z"/></svg>