<svg xmlns="http://www.w3.org/2000/svg" width="93" height="31"><defs><path id="A" d="M0 0h99.823v29.472H0z"/></defs><g transform="translate(0 .632)" fill-rule="evenodd"><mask id="B" fill="#fff"><use href="#A"/></mask><g mask="url(#B)" fill="#fff"><path d="M30.664 22.3c-.056.101-.224.337-.572.338l-4.942.016a8.74 8.74 0 0 0 .218-1.931c0-4.825-3.925-8.75-8.749-8.75s-8.75 3.925-8.75 8.75A8.73 8.73 0 0 0 8.1 22.71l-5.038.016a.69.69 0 0 1-.604-.355c-.064-.116-.145-.349.01-.621L15.969 2.752l.042-.064c.173-.281.448-.311.558-.311s.385.03.559.311l13.536 18.974c.161.285.054.54 0 .638m-14.045 4.795a6.38 6.38 0 0 1-6.373-6.373 6.38 6.38 0 0 1 6.373-6.373 6.38 6.38 0 0 1 6.372 6.373 6.38 6.38 0 0 1-6.372 6.373m16.052-6.708L19.127 1.401C18.566.523 17.614 0 16.57 0a3.01 3.01 0 0 0-2.558 1.402L.503 20.411l-.042.064a2.98 2.98 0 0 0-.086 3.041c.529.961 1.549 1.573 2.676 1.587l5.987-.019c1.513 2.62 4.344 4.388 7.581 4.388 3.258 0 6.103-1.791 7.609-4.438l5.873-.019c1.114-.004 2.101-.587 2.642-1.561s.514-2.12-.071-3.067m-16.626 5.137a5.24 5.24 0 0 0 5.233-5.233 1.19 1.19 0 0 0-1.189-1.189 1.19 1.19 0 0 0-1.188 1.189 2.86 2.86 0 0 1-2.856 2.856 1.19 1.19 0 0 0-1.188 1.188 1.19 1.19 0 0 0 1.188 1.188m33.142-6.051l-2.412-5.549-2.412 5.549h4.824zm-8.98 3.882l5.098-11.372c.274-.608.765-.98 1.451-.98h.118c.686 0 1.157.373 1.431.98l5.098 11.372a1.05 1.05 0 0 1 .138.51c0 .647-.49 1.157-1.137 1.157-.569 0-.961-.333-1.176-.843l-1.118-2.568h-6.666l-1.156 2.647a1.16 1.16 0 0 1-1.118.765c-.628 0-1.118-.49-1.118-1.118 0-.176.059-.353.157-.549zm13.984-5.255v-.039c0-3.902 2.921-7.098 7.078-7.098 2.118 0 3.509.627 4.706 1.549.255.196.471.529.471.961 0 .667-.529 1.177-1.196 1.177a1.18 1.18 0 0 1-.726-.235c-.941-.765-1.961-1.235-3.274-1.235-2.608 0-4.529 2.156-4.529 4.842v.04c0 2.686 1.902 4.862 4.529 4.862 1.451 0 2.431-.471 3.431-1.314.176-.157.431-.274.725-.274a1.15 1.15 0 0 1 1.138 1.117c0 .373-.176.667-.392.863-1.294 1.137-2.765 1.843-4.98 1.843-4 0-6.98-3.118-6.98-7.059m14.316 5.608V12.413c0-.686.529-1.215 1.215-1.215h7.98a1.09 1.09 0 0 1 1.078 1.078c0 .608-.49 1.079-1.078 1.079H70.92v3.568h5.902c.588 0 1.078.491 1.078 1.098 0 .588-.49 1.059-1.078 1.059H70.92v3.686h6.882a1.09 1.09 0 0 1 1.079 1.079c0 .608-.49 1.078-1.079 1.078h-8.078c-.686 0-1.215-.529-1.215-1.215"/><path d="M82.111 24.972c.348 0 .657-.147.918-.46l3.644-4.662 3.686 4.633c.245.329.562.489.946.489.352 0 .635-.12.855-.349a1.16 1.16 0 0 0 .329-.836c0-.292-.088-.526-.251-.71 0 0-4.097-5.036-4.097-5.036l4.102-5.061c.154-.211.226-.434.226-.685a1.09 1.09 0 0 0-.348-.818 1.14 1.14 0 0 0-.818-.329c-.399 0-.695.153-.896.442.002-.003-3.627 4.642-3.627 4.642l-3.632-4.613c-.105-.139-.243-.253-.417-.34s-.355-.13-.546-.13a1.13 1.13 0 0 0-1.166 1.166c0 .278.08.521.237.729l4.073 5.016-4.102 5.043a1.19 1.19 0 0 0-.246.74c0 .305.11.571.334.795s.49.334.795.334z" fill-rule="nonzero"/></g></g></svg>
