<svg width="278" height="85" viewBox="0 0 278 85" fill="none" xmlns="http://www.w3.org/2000/svg">
<path d="M262.307 85C255.118 85 249.156 81.9261 246 75.6906L250.471 73.2315C253.014 78.1497 256.959 79.9062 262.132 79.9062C267.83 79.9062 272.564 77.4471 272.564 72.5289C272.564 61.8144 247.315 69.2794 247.315 53.1198C247.315 46.006 253.803 41 261.956 41C268.882 41 274.142 43.986 276.948 49.0798L272.477 51.6267C270.197 47.3234 266.515 46.0938 262.044 46.0938C257.31 46.0938 252.751 48.6407 252.751 53.0319C252.751 63.3952 278 56.2814 278 72.4411C278 80.1697 270.723 85 262.307 85Z" fill="white"/>
<path d="M219.043 85C206.682 85 197 75.274 197 62.8317V22H202.36V49.6885C205.904 44.2559 212.128 40.5758 219.216 40.5758C231.664 40.5758 241 50.3018 241 62.8317C241 75.0111 231.578 85 219.043 85ZM219.043 79.8303C228.293 79.8303 235.64 72.1196 235.64 62.8317C235.64 53.5438 228.293 45.7455 219.043 45.7455C209.707 45.7455 202.36 53.5438 202.36 62.8317C202.36 72.1196 209.707 79.8303 219.043 79.8303Z" fill="white"/>
<path d="M165.265 85C153.163 85 144 75.087 144 62.913C144 50.913 153.422 41 165.957 41C178.318 41 188 50.5652 188 62.913V84.1304H182.9V74.3043C179.701 80.6522 173.218 85 165.265 85ZM165.957 79.8696C175.293 79.8696 182.64 72.2174 182.64 63C182.64 53.7826 175.293 46.1304 165.957 46.1304C156.707 46.1304 149.36 53.7826 149.36 63C149.36 72.2174 156.707 79.8696 165.957 79.8696Z" fill="white"/>
<path d="M131 22H136V84H131V22Z" fill="white"/>
<path fill-rule="evenodd" clip-rule="evenodd" d="M93.2214 6C87.8621 6 83.3817 7.85884 79.6103 11.6399C75.8389 15.4209 73.9848 19.9127 73.9848 25.2857L73.9847 35H121.008C122.66 35 124 36.3431 124 38V54C124 55.6569 122.66 57 121.008 57H73.9847L73.9848 78H84.6718L84.6717 61L90.6565 61L90.6565 81C90.6565 81.7956 90.3412 82.5587 89.7801 83.1213C89.2189 83.6839 88.4578 84 87.6641 84H70.9924C69.3398 84 68 82.6569 68 81L68 54C68 53.2044 68.3153 52.4413 68.8764 51.8787C69.4376 51.3161 70.1987 51 70.9924 51H118.015V41H70.9924C70.1987 41 69.4376 40.6839 68.8764 40.1213C68.3153 39.5587 68 38.7956 68 38L68 25.2857C68 18.3273 70.4806 12.3076 75.3785 7.39725C80.2763 2.48687 86.2807 0 93.2214 0H121.008C122.66 0 124 1.34315 124 3V19.7143C124 21.3711 122.66 22.7143 121.008 22.7143H93.2214C92.5264 22.7143 91.9638 22.9335 91.3917 23.507C90.8783 24.0218 90.6565 24.5588 90.6565 25.2857L90.6564 31L84.6717 31L84.6718 25.2857C84.6718 25.2857 84.6718 25.2857 84.6718 25.2857C84.6718 22.967 85.5245 20.9039 87.1598 19.2644C88.8106 17.6094 90.8785 16.7143 93.2214 16.7143H118.015V6H93.2214Z" fill="#0194FF"/>
<path d="M13.1022 13.3113C17.9456 8.41121 23.6907 6 30.5 6C37.3088 6 43.0316 8.41055 47.8356 13.3041L47.8499 13.3185C52.6868 18.1788 55.0694 23.9686 55.0694 30.8571V78H44.4792V54C44.4792 52.3431 43.1516 51 41.5139 51H2.96528C1.3276 51 0 52.3431 0 54V81C0 82.6569 1.3276 84 2.96528 84H19.4861C21.1238 84 22.4514 82.6569 22.4514 81V61H16.5208V78H5.93056V57H38.5486V81C38.5486 82.6569 39.8762 84 41.5139 84H58.0347C59.6724 84 61 82.6569 61 81V30.8571C61 22.372 57.9883 15.0529 52.0364 9.06878C46.1215 3.04704 38.887 0 30.5 0C22.1102 0 14.8589 3.04879 8.90865 9.06868C2.99087 15.0558 0 22.3752 0 30.8571V38C0 39.6569 1.3276 41 2.96528 41H41.5139C43.1516 41 44.4792 39.6569 44.4792 38V30.8571C44.4792 26.9812 43.0849 23.5973 40.3616 20.88C37.6758 18.1248 34.3311 16.7143 30.5 16.7143C26.6316 16.7143 23.3835 18.1515 20.6864 20.8801C19.7462 21.8314 16.5208 25.1639 16.5208 29.8571V31H22.4514V29.8571C22.4514 27.8361 23.9507 26.0629 24.88 25.1227C26.5151 23.4685 28.2741 22.7143 30.5 22.7143C32.7548 22.7143 34.5803 23.4889 36.1502 25.1045C36.1555 25.11 36.1609 25.1155 36.1663 25.121C36.1728 25.1276 36.1794 25.1342 36.186 25.1408C37.7829 26.729 38.5486 28.5759 38.5486 30.8571V35H5.93056V30.8571C5.93056 23.9619 8.29978 18.17 13.1022 13.3113Z" fill="#0194FF"/>
</svg>
