<svg width="184" height="56" viewBox="0 0 184 56" fill="none" xmlns="http://www.w3.org/2000/svg">
<path d="M173.661 56C168.925 56 164.997 53.9749 162.918 49.8667L165.863 48.2466C167.538 51.4869 170.138 52.6441 173.545 52.6441C177.3 52.6441 180.419 51.024 180.419 47.7838C180.419 40.7247 163.784 45.6429 163.784 34.9965C163.784 30.3098 168.058 27.0117 173.43 27.0117C177.993 27.0117 181.459 28.979 183.307 32.3349L180.361 34.0129C178.859 31.1777 176.433 30.3676 173.488 30.3676C170.369 30.3676 167.365 32.0456 167.365 34.9387C167.365 41.7662 184 37.0795 184 47.7259C184 52.8177 179.206 56 173.661 56Z" fill="#777777"/>
<path d="M145.158 55.9998C137.014 55.9998 130.635 49.5921 130.635 41.3948V14.4939H134.166V32.7357C136.501 29.1566 140.602 26.7321 145.272 26.7321C153.473 26.7321 159.623 33.1398 159.623 41.3948C159.623 49.4189 153.416 55.9998 145.158 55.9998ZM145.158 52.5939C151.252 52.5939 156.092 47.5139 156.092 41.3948C156.092 35.2757 151.252 30.138 145.158 30.138C139.007 30.138 134.166 35.2757 134.166 41.3948C134.166 47.5139 139.007 52.5939 145.158 52.5939Z" fill="#777777"/>
<path d="M109.729 56C101.756 56 95.7194 49.469 95.7194 41.4486C95.7194 33.5427 101.927 27.0117 110.185 27.0117C118.329 27.0117 124.708 33.3135 124.708 41.4486V55.4271H121.348V48.9534C119.24 53.1355 114.969 56 109.729 56ZM110.185 52.6199C116.336 52.6199 121.177 47.5785 121.177 41.5059C121.177 35.4332 116.336 30.3918 110.185 30.3918C104.091 30.3918 99.2504 35.4332 99.2504 41.5059C99.2504 47.5785 104.091 52.6199 110.185 52.6199Z" fill="#777777"/>
<path d="M87.1535 14.4939H90.4476V55.341H87.1535V14.4939Z" fill="#777777"/>
<path fill-rule="evenodd" clip-rule="evenodd" d="M62.2636 3.95307C58.7327 3.95307 55.781 5.17772 53.2962 7.66877C50.8115 10.1598 49.59 13.1191 49.59 16.659L49.59 23.059H80.5698C81.6586 23.059 82.5412 23.9439 82.5412 25.0355V35.5766C82.5412 36.6682 81.6586 37.5531 80.5698 37.5531H49.59L49.59 51.3884H56.6309L56.6308 40.1884L60.5737 40.1884L60.5738 53.3649C60.5738 53.8891 60.3661 54.3918 59.9963 54.7625C59.6266 55.1331 59.1252 55.3414 58.6023 55.3414H47.6186C46.5298 55.3414 45.6471 54.4565 45.6471 53.3649L45.6471 35.5766C45.6471 35.0525 45.8548 34.5497 46.2245 34.1791C46.5942 33.8084 47.0957 33.6002 47.6185 33.6002H78.5984V27.0119H47.6185C47.0957 27.0119 46.5942 26.8037 46.2245 26.433C45.8548 26.0624 45.6471 25.5596 45.6471 25.0354L45.6471 16.659C45.6471 12.0746 47.2814 8.10869 50.5082 4.87361C53.735 1.63854 57.6908 0.00012207 62.2636 0.00012207H80.5698C81.6586 0.00012207 82.5413 0.885019 82.5413 1.9766V12.9884C82.5413 14.08 81.6586 14.9649 80.5698 14.9649H62.2636C61.8057 14.9649 61.435 15.1093 61.0581 15.4871C60.7199 15.8262 60.5738 16.18 60.5738 16.659L60.5737 20.4237L56.6308 20.4237L56.6309 16.659C56.6309 16.659 56.6309 16.659 56.6309 16.659C56.6309 15.1313 57.1926 13.7722 58.2701 12.692C59.3577 11.6016 60.72 11.0119 62.2636 11.0119H78.5984V3.95307H62.2636Z" fill="#777777"/>
<path d="M9.47933 8.76995C12.6703 5.54163 16.4553 3.95307 20.9414 3.95307C25.4273 3.95307 29.1976 5.5412 32.3626 8.76517L32.372 8.77471C35.5586 11.9768 37.1284 15.7912 37.1284 20.3296V51.3884H30.1513V35.5766C30.1513 34.4851 29.2766 33.6002 28.1977 33.6002H2.80089C1.72195 33.6002 0.84729 34.4851 0.84729 35.5766V53.3649C0.84729 54.4565 1.72195 55.3414 2.80089 55.3414H13.6852C14.7642 55.3414 15.6388 54.4565 15.6388 53.3649V40.1884H11.7316V51.3884H4.75449V37.5531H26.2441V53.3649C26.2441 54.4565 27.1187 55.3414 28.1977 55.3414H39.082C40.1609 55.3414 41.0356 54.4565 41.0356 53.3649V20.3296C41.0356 14.7394 39.0514 9.91735 35.1301 5.97486C31.2333 2.00759 26.467 0.00012207 20.9414 0.00012207C15.414 0.00012207 10.6367 2.00874 6.71653 5.97479C2.81775 9.91922 0.84729 14.7415 0.84729 20.3296V25.0355C0.84729 26.127 1.72195 27.0119 2.80089 27.0119H28.1977C29.2766 27.0119 30.1513 26.127 30.1513 25.0355V20.3296C30.1513 17.776 29.2327 15.5466 27.4385 13.7564C25.669 11.9412 23.4654 11.0119 20.9414 11.0119C18.3928 11.0119 16.2529 11.9588 14.476 13.7564C13.8566 14.3832 11.7316 16.5787 11.7316 19.6707V20.4237H15.6388V19.6707C15.6388 18.3392 16.6266 17.171 17.2388 16.5516C18.3161 15.4618 19.4749 14.9649 20.9414 14.9649C22.427 14.9649 23.6297 15.4752 24.6639 16.5396C24.6674 16.5432 24.671 16.5468 24.6745 16.5504C24.6788 16.5548 24.6832 16.5592 24.6875 16.5635C25.7396 17.6099 26.2441 18.8266 26.2441 20.3296V23.059H4.75449V20.3296C4.75449 15.7868 6.31539 11.9709 9.47933 8.76995Z" fill="#777777"/>
</svg>
