<svg xmlns="http://www.w3.org/2000/svg" height="568.88" width="588.42"><path fill="#222" d="M10.5 177.038l20.675 1.531c21.441-24.249 29.864-95.974 156.213-81.935-4.595 307.321-139.366 339.738-130.943 402.784 3.063 35.735 31.396 57.686 62.026 58.963 96.74-3.318 92.4-133.751 122.52-462.513h124.817c-6.636 115.883-24.759 231.767-26.801 345.353 1.532 75.554 47.476 115.883 107.971 116.394 99.547 3.318 130.943-112.82 130.943-162.339h-21.441c-2.042 40.84-21.696 70.194-63.557 71.98-114.097 1.531-51.305-200.626-50.539-369.857l135.538.766-.766-86.53C13.807 8.908 85.312-2.137 10.5 177.038z"/></svg>
