<svg xmlns="http://www.w3.org/2000/svg" fill="none" viewBox="0 0 24 24" height="256" width="256"><path fill="#444" d="M9.575 16.25L16.25 12 9.575 7.75v8.5zM12 22c-1.367 0-2.658-.262-3.875-.788s-2.279-1.242-3.187-2.15-1.625-1.971-2.15-3.187S2 13.367 2 12c0-1.383.263-2.683.788-3.9s1.242-2.275 2.15-3.175a10.25 10.25 0 0 1 3.188-2.137C9.342 2.263 10.633 2 12 2c1.383 0 2.683.263 3.9.788s2.275 1.238 3.175 2.138 1.613 1.958 2.137 3.175S22 10.617 22 12c0 1.367-.262 2.658-.788 3.875a10.25 10.25 0 0 1-2.137 3.188c-.9.908-1.958 1.625-3.175 2.15S13.383 22 12 22zm0-1.5c2.367 0 4.375-.829 6.025-2.488S20.5 14.35 20.5 12c0-2.367-.825-4.375-2.475-6.025S14.367 3.5 12 3.5c-2.35 0-4.354.825-6.012 2.475S3.5 9.633 3.5 12c0 2.35.829 4.354 2.488 6.012S9.65 20.5 12 20.5z"/></svg>
